<?xml version="1.0" encoding="UTF-8"?>
<!DOCTYPE svg PUBLIC "-//W3C//DTD SVG 1.1//EN" "http://www.w3.org/Graphics/SVG/1.1/DTD/svg11.dtd">
<svg xmlns="http://www.w3.org/2000/svg" version="1.1" width="512px" height="512px" style="shape-rendering:geometricPrecision; text-rendering:geometricPrecision; image-rendering:optimizeQuality; fill-rule:evenodd; clip-rule:evenodd" xmlns:xlink="http://www.w3.org/1999/xlink">
<g><path style="opacity:0.966" fill="#1272eb" d="M 183.5,143.5 C 179.102,146.895 175.436,150.895 172.5,155.5C 144.167,183.167 116.167,211.167 88.5,239.5C 83.8333,242.167 80.1667,245.833 77.5,250.5C 73.6199,254.545 69.2865,258.045 64.5,261C 56.5148,263.502 48.8481,262.835 41.5,259C 28.6667,246.167 15.8333,233.333 3,220.5C 2.05898,218.273 0.892318,216.273 -0.5,214.5C -0.5,209.833 -0.5,205.167 -0.5,200.5C 0.620727,198.259 1.78739,195.925 3,193.5C 11.5,185 20,176.5 28.5,168C 39.0569,166.623 42.2236,170.79 38,180.5C 30.3333,188.167 22.6667,195.833 15,203.5C 14.3333,205.833 14.3333,208.167 15,210.5C 26.1369,222.638 37.6369,234.471 49.5,246C 52.366,247.457 55.366,247.79 58.5,247C 98.6945,207.139 138.528,166.972 178,126.5C 178.325,124.447 177.991,122.447 177,120.5C 165.167,108.667 153.333,96.8333 141.5,85C 140.128,84.5983 138.795,84.0983 137.5,83.5C 136.205,84.0983 134.872,84.5983 133.5,85C 123.167,95.3333 112.833,105.667 102.5,116C 97.9719,118.41 94.1385,117.577 91,113.5C 90.2099,110.366 90.5432,107.366 92,104.5C 102.167,94.3333 112.333,84.1667 122.5,74C 131.121,67.9249 140.121,67.2582 149.5,72C 163.667,84.8333 177.167,98.3333 190,112.5C 195.686,124.571 193.52,134.905 183.5,143.5 Z"/></g>
<g><path style="opacity:0.972" fill="#1272eb" d="M 511.5,200.5 C 511.5,204.833 511.5,209.167 511.5,213.5C 510.379,215.741 509.213,218.075 508,220.5C 495.167,233.333 482.333,246.167 469.5,259C 462.152,262.835 454.485,263.502 446.5,261C 441.713,258.045 437.38,254.545 433.5,250.5C 430.833,245.833 427.167,242.167 422.5,239.5C 394.5,211.167 366.5,182.833 338.5,154.5C 335.437,150.434 331.771,147.101 327.5,144.5C 317.584,135.42 315.417,124.753 321,112.5C 334.199,97.6334 348.366,83.8001 363.5,71C 372.341,67.5664 380.674,68.5664 388.5,74C 428,113.5 467.5,153 507,192.5C 508.795,195.099 510.295,197.766 511.5,200.5 Z M 372.5,83.5 C 374.308,83.4914 375.975,83.9914 377.5,85C 417,124.5 456.5,164 496,203.5C 496.79,206.634 496.457,209.634 495,212.5C 483.833,223.667 472.667,234.833 461.5,246C 458.634,247.457 455.634,247.79 452.5,247C 413,207.5 373.5,168 334,128.5C 333.598,127.128 333.098,125.795 332.5,124.5C 333.098,123.205 333.598,121.872 334,120.5C 346.449,107.546 359.283,95.2129 372.5,83.5 Z"/></g>
<g><path style="opacity:0.967" fill="#273a63" d="M 183.5,143.5 C 186.296,146.797 189.296,149.964 192.5,153C 207.46,156.359 222.46,159.525 237.5,162.5C 248.135,158.346 259.135,155.512 270.5,154C 286.853,153.759 303.186,153.092 319.5,152C 322.036,149.295 324.703,146.795 327.5,144.5C 331.771,147.101 335.437,150.434 338.5,154.5C 334.036,158.463 329.702,162.63 325.5,167C 307.846,167.99 290.18,168.657 272.5,169C 262.986,169.962 253.986,172.628 245.5,177C 232.304,189.862 219.47,203.029 207,216.5C 206.146,220.625 206.48,224.625 208,228.5C 211.833,232.333 215.667,236.167 219.5,240C 224.5,243.333 229.5,243.333 234.5,240C 240.167,234.333 245.833,228.667 251.5,223C 265.813,212.859 280.813,211.859 296.5,220C 301.008,222.753 305.341,225.753 309.5,229C 332.043,252.044 355.043,274.544 378.5,296.5C 389.811,281.891 400.644,266.891 411,251.5C 415.037,247.631 418.87,243.631 422.5,239.5C 427.167,242.167 430.833,245.833 433.5,250.5C 429.537,254.964 425.37,259.298 421,263.5C 410.623,278.421 400.123,293.254 389.5,308C 397.512,317.913 398.345,328.413 392,339.5C 387.554,343.946 383.054,348.446 378.5,353C 374.402,355.199 370.069,356.699 365.5,357.5C 364.698,362.073 363.198,366.406 361,370.5C 356.5,375 352,379.5 347.5,384C 343.267,386.8 338.601,388.3 333.5,388.5C 333.143,392.263 332.31,395.93 331,399.5C 325.004,407.836 317.504,414.336 308.5,419C 302.782,419.516 297.115,419.516 291.5,419C 286.573,427.595 279.907,434.595 271.5,440C 260.83,444.123 251.33,442.29 243,434.5C 233.964,439.653 224.797,439.82 215.5,435C 208.515,429.026 202.682,422.192 198,414.5C 188.361,417.883 179.527,416.383 171.5,410C 163.256,403.777 158.422,395.61 157,385.5C 144.022,383.205 134.356,376.205 128,364.5C 126.438,360.986 125.605,357.319 125.5,353.5C 111.17,351.025 101.004,343.025 95,329.5C 93.3869,321.23 94.7202,313.563 99,306.5C 102.833,302.667 106.667,298.833 110.5,295C 102.941,284.438 95.774,273.605 89,262.5C 84.963,258.631 81.1296,254.631 77.5,250.5C 80.1667,245.833 83.8333,242.167 88.5,239.5C 92.1296,243.631 95.963,247.631 100,251.5C 106.46,262.256 113.293,272.756 120.5,283C 121.167,283.667 121.833,283.667 122.5,283C 127.241,277.588 132.574,272.921 138.5,269C 147.161,265.427 155.494,266.094 163.5,271C 168,275.5 172.5,280 177,284.5C 179.706,288.785 180.873,293.452 180.5,298.5C 185.548,298.127 190.215,299.294 194.5,302C 201.127,307.62 206.627,314.12 211,321.5C 211.822,324.117 212.322,326.784 212.5,329.5C 217.601,329.7 222.267,331.2 226.5,334C 231,338.5 235.5,343 240,347.5C 242.042,351.842 243.542,356.342 244.5,361C 249.146,361.326 253.479,362.66 257.5,365C 270.561,378.73 284.228,391.73 298.5,404C 302.207,404.996 305.541,404.33 308.5,402C 312.422,398.749 315.588,394.916 318,390.5C 318.743,387.217 318.076,384.217 316,381.5C 297,362.5 278,343.5 259,324.5C 257.167,315.667 260.667,312.167 269.5,314C 288.5,333 307.5,352 326.5,371C 330.833,374.333 335.167,374.333 339.5,371C 343.036,367.799 346.203,364.299 349,360.5C 349.667,358.167 349.667,355.833 349,353.5C 330.362,333.862 311.362,314.528 292,295.5C 288.549,288.536 290.549,284.203 298,282.5C 299.627,282.625 301.127,283.125 302.5,284C 321.528,303.362 340.862,322.362 360.5,341C 363.924,342.658 367.258,342.325 370.5,340C 375.539,336.138 379.206,331.304 381.5,325.5C 380.764,323.459 379.931,321.459 379,319.5C 353.5,294 328,268.5 302.5,243C 296.091,237.128 288.758,232.795 280.5,230C 274.405,228.734 268.738,229.734 263.5,233C 256.803,240.032 249.803,246.698 242.5,253C 230.732,259.395 219.398,258.729 208.5,251C 202.204,245.711 197.038,239.544 193,232.5C 189.562,222.232 190.895,212.565 197,203.5C 206.167,194.333 215.333,185.167 224.5,176C 211.678,172.546 198.678,169.546 185.5,167C 180.998,163.33 176.665,159.497 172.5,155.5C 175.436,150.895 179.102,146.895 183.5,143.5 Z M 147.5,281.5 C 155.111,283.257 160.945,287.591 165,294.5C 165.667,297.167 165.667,299.833 165,302.5C 153.8,315.368 141.633,327.201 128.5,338C 126.5,338.667 124.5,338.667 122.5,338C 118.367,334.869 114.534,331.369 111,327.5C 109.517,324.298 109.183,320.964 110,317.5C 122.116,304.879 134.616,292.879 147.5,281.5 Z M 176.5,313.5 C 179.978,313.184 183.312,313.684 186.5,315C 190.752,318.581 194.252,322.748 197,327.5C 197.758,331.329 196.758,334.662 194,337.5C 183.471,348.363 172.637,358.863 161.5,369C 158.833,369.667 156.167,369.667 153.5,369C 149.367,365.869 145.534,362.369 142,358.5C 139.69,353.715 140.357,349.381 144,345.5C 154.728,334.604 165.562,323.937 176.5,313.5 Z M 209.5,344.5 C 212.794,344.259 215.794,345.092 218.5,347C 222.036,350.201 225.203,353.701 228,357.5C 228.667,359.833 228.667,362.167 228,364.5C 216.863,376.638 205.363,388.471 193.5,400C 190.2,401.879 186.866,401.879 183.5,400C 178.133,395.811 174.133,390.644 171.5,384.5C 172.098,383.205 172.598,381.872 173,380.5C 184.397,367.602 196.564,355.602 209.5,344.5 Z M 239.5,376.5 C 250.058,377.201 257.058,382.701 260.5,393C 260,394.5 259.5,396 259,397.5C 250.833,405.667 242.667,413.833 234.5,422C 231.634,423.457 228.634,423.79 225.5,423C 220.287,419.454 216.12,414.954 213,409.5C 212.416,406.743 212.75,404.077 214,401.5C 222.395,392.937 230.895,384.604 239.5,376.5 Z M 273.5,402.5 C 277.704,406.061 278.537,410.395 276,415.5C 271.832,420.682 266.832,424.682 261,427.5C 258.4,427.082 256.233,425.916 254.5,424C 261.785,417.556 268.119,410.389 273.5,402.5 Z"/></g>
</svg>
