<?xml version="1.0" encoding="utf-8"?>
<!-- Generator: Adobe Illustrator 25.2.3, SVG Export Plug-In . SVG Version: 6.00 Build 0)  -->
<svg version="1.1" id="Capa_1" xmlns="http://www.w3.org/2000/svg" xmlns:xlink="http://www.w3.org/1999/xlink" x="0px" y="0px"
	 viewBox="0 0 512 512" style="enable-background:new 0 0 512 512;" xml:space="preserve">
<style type="text/css">
	.st0{opacity:0.998;fill-rule:evenodd;clip-rule:evenodd;fill:#283B64;enable-background:new    ;}
	.st1{opacity:0.994;fill-rule:evenodd;clip-rule:evenodd;fill:#283B64;enable-background:new    ;}
	.st2{opacity:0.996;fill-rule:evenodd;clip-rule:evenodd;fill:#283B64;enable-background:new    ;}
	.st3{opacity:0.993;fill-rule:evenodd;clip-rule:evenodd;fill:#283B64;enable-background:new    ;}
	.st4{opacity:0.999;fill-rule:evenodd;clip-rule:evenodd;fill:#1273EA;enable-background:new    ;}
	.st5{opacity:0.995;fill-rule:evenodd;clip-rule:evenodd;fill:#283B64;enable-background:new    ;}
	.st6{fill:#283B64;}
	.st7{fill:#1273EA;}
</style>
<path class="st0" d="M252.5-0.5c2,0,4,0,6,0c2,1.1,3.5,2.8,4.5,5c0.7,15.7,0.7,31.3,0,47c-3.4,5.1-7.9,6.3-13.5,3.5
	c-1-1.4-1.8-2.9-2.5-4.5c-0.7-15-0.7-30,0-45C248,2.6,249.9,0.6,252.5-0.5z"/>
<path class="st1" d="M137.5,30.5c3,0.4,5.5,1.7,7.5,4c7.3,12.2,14.3,24.5,21,37c1,8.7-2.8,12.2-11.5,10.5c-1.4-0.5-2.6-1.3-3.5-2.5
	c-7.3-12.2-14.3-24.5-21-37C128.7,36,131.2,32,137.5,30.5z"/>
<path class="st1" d="M371.5,30.5c7.9,1.1,10.7,5.5,8.5,13c-6.4,11.8-13.1,23.5-20,35c-5,5.3-10,5.3-15,0c-0.7-3-0.7-6,0-9
	c7-12,14-24,21-36C367.9,32.4,369.7,31.4,371.5,30.5z"/>
<path class="st2" d="M50.5,116.5c2.8,0.3,5.5,1.2,8,2.5c12.1,6.8,23.9,14,35.5,21.5c2.9,10.1-1,14.3-11.5,12.5
	c-11.5-6.9-23.2-13.6-35-20C41.6,126.1,42.6,120.6,50.5,116.5z"/>
<path class="st3" d="M456.5,116.5c9.9,1.3,12.6,6.4,8,15.5c-12.3,7-24.7,14-37,21c-11.1,0.9-14.4-3.7-10-14
	C430.6,131.5,443.6,124,456.5,116.5z"/>
<path class="st4" d="M244.5,191.5c31-3.1,51.9,9.9,62.5,39c5.5,33.9-8,56.1-40.5,66.5c-32.4,3.9-53.6-9.6-63.5-40.5
	C198.9,223.1,212.7,201.5,244.5,191.5z M254.5,207.5c-21.4,3-33.4,15.4-36,37c2.7,22,15,34.3,37,37c22.2-2.5,34.2-14.9,36-37
	C289.5,221.9,277.2,209.5,254.5,207.5z"/>
<path class="st2" d="M16.5,234.5c16-0.2,32,0,48,0.5c4.8,3.1,6,7.3,3.5,12.5c-1.3,2-3.2,3.2-5.5,3.5c-14.7,0.7-29.3,0.7-44,0
	c-3.9-1.2-6.3-3.9-7-8C12.1,239.5,13.8,236.7,16.5,234.5z"/>
<path class="st0" d="M446.5,234.5c15.7-0.2,31.3,0,47,0.5c8,5.3,8,10.7,0,16c-15.3,0.7-30.7,0.7-46,0
	C439.9,246,439.6,240.5,446.5,234.5z"/>
<path class="st1" d="M83.5,331.5c8-0.5,11.8,3.2,11.5,11c-1.1,2.1-2.6,4-4.5,5.5c-11.8,6.4-23.5,13.1-35,20
	c-10.9,0.8-14.3-3.8-10-14C58.3,346.6,71,339.1,83.5,331.5z"/>
<path class="st5" d="M420.5,331.5c2-0.2,4,0,6,0.5c13.7,7,26.9,14.9,39.5,23.5c2.2,9.1-1.3,13.3-10.5,12.5
	c-12.5-6.7-24.8-13.7-37-21C414.1,341.1,414.8,335.9,420.5,331.5z"/>
<path class="st6" d="M347.4,108.7C287.3,72.4,226,71.4,165.5,107c-47.1,33-71.8,78.5-74,136.5c2.3,63.8,30.6,112,85,144.5
	c2.5,3.1,4.3,6.6,5.5,10.5c0.3,15.7,0.7,31.3,1,47c1.9,12.4,8.7,20.7,20.5,25c2,21.7,13.4,35.3,34,41c11.7,0,23.3,0,35,0
	c21.3-5.2,32.8-18.8,34.5-41c10.6-4.3,17.3-11.9,20-23c0.3-16,0.7-32,1-48c0.8-3.3,2.1-6.3,4-9c8.6-6.9,17.4-13.4,26.5-19.5
	c30.8-25.5,50-58,57.5-97.5C425.6,204.3,403.3,149.7,347.4,108.7z M270.5,494c-10.3,0.7-20.7,0.7-31,0c-11.4-3.2-17.4-10.8-18-22.5
	c22.7,0,45.3,0,68,0C288.2,483.3,281.9,490.8,270.5,494z M301.5,454c-15.3,0.2-30.7,0.3-46,0.5c-16.4,0.1-32.7-0.4-49-1.5
	c-5.8-4.8-8.1-10.9-7-18.5c37,0,74,0,111,0C312.4,443.4,309.4,449.9,301.5,454z M367,338.5c-12.8,14.1-27.3,25.9-43.5,35.5
	c-11.4,12.2-15.8,26.7-13,43.5c-37,0-74,0-111,0c3.3-17.5-1.4-32.3-14-44.5c-55.2-33.5-80.4-82.7-75.5-147.5
	c11-63.7,47.5-104.9,109.5-123.5c8.4-2,16.7-3.5,25-4.5c66.5-1,114.7,28,144.5,87C411.1,240.1,403.8,291.5,367,338.5z"/>
<path class="st7" d="M365,222.5c-1.8-1.8-4-3-6.5-3.5c-6-0.2-12-0.7-18-1.5c-1.9-4.9-3.9-9.7-6-14.5c3.5-4.5,7.3-8.6,11.5-12.5
	c2.7-3.5,3-7.2,1-11c-8.8-8.8-17.7-17.7-26.5-26.5c-3.3-2-6.7-2-10,0c-4.2,4.5-8.7,8.7-13.5,12.5c-5.2-2.9-10.7-4.9-16.5-6
	c0.2-7,0-14-0.5-21c-0.5-1.4-1.3-2.6-2.5-3.5c-13.9-1.5-27.9-2-42-1.5c-2.6,1.1-4.5,3.1-5.5,6c-0.5,6.7-0.7,13.3-0.5,20
	c-5.5,1.4-10.9,3.4-16,6c-4.2-3.7-8.2-7.5-12-11.5c-3-2.2-6.4-2.8-10-2c-9.5,8.5-18.6,17.3-27.5,26.5c-1.5,3.2-1.8,6.5-1,10
	c4.7,4.5,9.2,9.2,13.5,14c-3,5-5,10.3-6,16c-6-0.2-12,0-18,0.5c-3.4,0.1-5.9,1.6-7.5,4.5c-1,14.8-0.6,29.4,1,44
	c1.6,1.2,3.5,2,5.5,2.5c6,0.3,12,0.7,18,1c2,5.3,4.4,10.4,7,15.5c-4.3,4.8-8.8,9.5-13.5,14c-0.8,3.5-0.5,6.8,1,10
	c8.9,9.2,18,18,27.5,26.5c3.1,0.8,6.1,0.5,9-1c4.2-4.3,8.5-8.5,13-12.5c5.1,2.6,10.5,4.6,16,6c-0.2,6.7,0,13.3,0.5,20
	c0.8,2.4,2.3,4.3,4.5,5.5c6.8,0.2,13.7,0.3,20.5,0.5c28.7,0,25.5,3.1,25.5-26c5.8-1.1,11.3-3.1,16.5-6c4.8,3.8,9.3,8,13.5,12.5
	c3.3,2,6.7,2,10,0c8.8-8.8,17.7-17.7,26.5-26.5c2-3.8,1.7-7.5-1-11c-4.2-3.9-8-8-11.5-12.5c2.1-4.8,4.1-9.6,6-14.5
	c6.3-0.8,12.6-1.3,19-1.5c2.3-0.3,4.2-1.5,5.5-3.5c1.1-7.3,1.6-14.6,1.5-22C366.6,237.1,366.1,229.8,365,222.5z M349.5,253.5
	c-6.3-0.2-12.7,0-19,0.5c-1.4,0.5-2.6,1.3-3.5,2.5c-3.3,11-7.5,21.7-12.5,32c0.1,1.8,0.6,3.5,1.5,5c3.8,3.8,7.7,7.7,11.5,11.5
	c-3.7,3.7-7.3,7.3-11,11c-0.7,0.7-1.3,0.7-2,0c-4.3-5.3-9.5-9.5-15.5-12.5c-5.5,1.8-10.7,4.3-15.5,7.5c-5.3,1.9-10.6,3.5-16,5
	c-2,1.3-3.2,3.2-3.5,5.5c-0.5,5.7-0.7,11.3-0.5,17c-5.7,0-11.3,0-17,0c0.2-6.3,0-12.7-0.5-19c-1.5-1.9-3.4-3.4-5.5-4.5
	c-10-2.6-19.5-6.4-28.5-11.5c-6.6,2.6-12.1,6.8-16.5,12.5c-0.7,0.7-1.3,0.7-2,0c-3.7-3.7-7.3-7.3-11-11c4.2-4.2,8.3-8.3,12.5-12.5
	c0.2-1.3,0.3-2.7,0.5-4c-4.4-10.1-8.2-20.4-11.5-31c-1.2-1.2-2.3-2.3-3.5-3.5c-6.3-0.5-12.7-0.7-19-0.5c0-6,0-12,0-18
	c6.3,0.2,12.7,0,19-0.5c1.5-0.8,2.7-2,3.5-3.5c3.3-10.6,7.1-20.9,11.5-31c-0.2-1.3-0.3-2.7-0.5-4c-3.7-3.7-7.3-7.3-11-11
	c-0.7-0.7-0.7-1.3,0-2c3.7-3.7,7.3-7.3,11-11c3.8,3.8,7.7,7.7,11.5,11.5c1.6,0.6,3.3,1.1,5,1.5c10.2-5.4,20.9-9.8,32-13
	c0.8-1,1.7-2,2.5-3c0.5-6.3,0.7-12.7,0.5-19c5.7,0,11.3,0,17,0c-0.2,5.7,0,11.3,0.5,17c0.3,2.3,1.5,4.2,3.5,5.5
	c10.9,2.9,21.2,7.1,31,12.5c1.7-0.4,3.4-0.9,5-1.5c3.7-3.7,7.3-7.3,11-11c0.7-0.7,1.3-0.7,2,0c3.7,3.7,7.3,7.3,11,11
	c-3.8,3.8-7.7,7.7-11.5,11.5c-0.9,1.5-1.4,3.2-1.5,5c5,10.3,9.2,21,12.5,32c0.8,0.8,1.7,1.7,2.5,2.5c6.7,0.5,13.3,0.7,20,0.5
	C349.5,241.5,349.5,247.5,349.5,253.5z"/>
</svg>
