<?xml version="1.0" encoding="UTF-8"?>
<!DOCTYPE svg PUBLIC "-//W3C//DTD SVG 1.1//EN" "http://www.w3.org/Graphics/SVG/1.1/DTD/svg11.dtd">
<svg xmlns="http://www.w3.org/2000/svg" version="1.1" width="512px" height="512px" style="shape-rendering:geometricPrecision; text-rendering:geometricPrecision; image-rendering:optimizeQuality; fill-rule:evenodd; clip-rule:evenodd" xmlns:xlink="http://www.w3.org/1999/xlink">
<g><path style="opacity:1" fill="#273a64" d="M 252.5,76.5 C 251.207,78.2959 249.707,79.9625 248,81.5C 247.501,85.4862 247.334,89.4862 247.5,93.5C 199.832,93.3333 152.166,93.5 104.5,94C 99.3333,95.8333 95.8333,99.3333 94,104.5C 93.5,152.166 93.3333,199.832 93.5,247.5C 89.4862,247.334 85.4862,247.501 81.5,248C 79.9625,249.707 78.2959,251.207 76.5,252.5C 76.3333,202.166 76.5,151.832 77,101.5C 80.6104,88.2225 89.1104,80.0559 102.5,77C 152.499,76.5 202.499,76.3333 252.5,76.5 Z"/></g>
<g><path style="opacity:1" fill="#1272ea" d="M 252.5,76.5 C 304.501,76.3333 356.501,76.5 408.5,77C 421.89,80.0559 430.39,88.2225 434,101.5C 434.5,153.832 434.667,206.166 434.5,258.5C 429.833,263.07 424.166,264.737 417.5,263.5C 401.833,263.5 386.167,263.5 370.5,263.5C 373.343,278.326 369.343,290.826 358.5,301C 343.824,309.487 330.324,307.987 318,296.5C 315.122,292.951 313.122,288.951 312,284.5C 311.5,277.508 311.334,270.508 311.5,263.5C 295.5,263.5 279.5,263.5 263.5,263.5C 263.977,284.259 263.477,304.925 262,325.5C 261.25,326.126 260.416,326.626 259.5,327C 249.451,327.135 239.451,327.802 229.5,329C 219.232,336.262 218.899,343.929 228.5,352C 238.427,353.258 248.427,353.924 258.5,354C 260.286,354.785 261.786,355.951 263,357.5C 263.5,377.497 263.667,397.497 263.5,417.5C 264.737,424.166 263.07,429.833 258.5,434.5C 206.499,434.667 154.499,434.5 102.5,434C 89.1104,430.944 80.6104,422.777 77,409.5C 76.5,357.168 76.3333,304.834 76.5,252.5C 78.2959,251.207 79.9625,249.707 81.5,248C 85.4862,247.501 89.4862,247.334 93.5,247.5C 109.167,247.5 124.833,247.5 140.5,247.5C 140.334,241.158 140.5,234.825 141,228.5C 147.079,208.783 160.246,201.283 180.5,206C 190.191,209.689 196.357,216.522 199,226.5C 199.5,233.492 199.666,240.492 199.5,247.5C 215.5,247.5 231.5,247.5 247.5,247.5C 247.023,226.741 247.523,206.075 249,185.5C 249.75,184.874 250.584,184.374 251.5,184C 261.549,183.865 271.549,183.198 281.5,182C 288.812,178.062 290.979,172.229 288,164.5C 286.833,162 285,160.167 282.5,159C 272.573,157.742 262.573,157.076 252.5,157C 250.714,156.215 249.214,155.049 248,153.5C 247.5,133.503 247.333,113.503 247.5,93.5C 247.334,89.4862 247.501,85.4862 248,81.5C 249.707,79.9625 251.207,78.2959 252.5,76.5 Z M 263.5,93.5 C 311.168,93.3333 358.834,93.5 406.5,94C 411.333,96.1667 414.833,99.6667 417,104.5C 417.5,152.166 417.667,199.832 417.5,247.5C 397.497,247.333 377.497,247.5 357.5,248C 355.951,249.214 354.785,250.714 354,252.5C 353.924,262.573 353.258,272.573 352,282.5C 347.8,289.343 341.967,291.176 334.5,288C 332.291,286.127 330.458,283.96 329,281.5C 327.802,271.549 327.135,261.549 327,251.5C 326.626,250.584 326.126,249.75 325.5,249C 304.925,247.523 284.259,247.023 263.5,247.5C 263.5,231.5 263.5,215.5 263.5,199.5C 270.508,199.666 277.508,199.5 284.5,199C 302.466,192.24 309.3,179.407 305,160.5C 300.897,150.063 293.397,143.563 282.5,141C 276.175,140.5 269.842,140.334 263.5,140.5C 263.5,124.833 263.5,109.167 263.5,93.5 Z M 166.5,221.5 C 173.623,220.479 178.79,223.146 182,229.5C 183.198,239.451 183.865,249.451 184,259.5C 184.374,260.416 184.874,261.25 185.5,262C 206.075,263.477 226.741,263.977 247.5,263.5C 247.5,279.5 247.5,295.5 247.5,311.5C 240.492,311.334 233.492,311.5 226.5,312C 212.569,316.346 205.235,325.846 204.5,340.5C 205.3,356.138 213.3,365.971 228.5,370C 234.825,370.5 241.158,370.666 247.5,370.5C 247.5,386.167 247.5,401.833 247.5,417.5C 199.832,417.667 152.166,417.5 104.5,417C 99.3333,415.167 95.8333,411.667 94,406.5C 93.5,358.834 93.3333,311.168 93.5,263.5C 113.503,263.667 133.503,263.5 153.5,263C 155.487,261.681 156.654,259.848 157,257.5C 157.333,248.833 157.667,240.167 158,231.5C 159.261,226.745 162.095,223.412 166.5,221.5 Z"/></g>
<g><path style="opacity:1" fill="#273a64" d="M 434.5,258.5 C 434.667,308.834 434.5,359.168 434,409.5C 430.39,422.777 421.89,430.944 408.5,434C 358.501,434.5 308.501,434.667 258.5,434.5C 263.07,429.833 264.737,424.166 263.5,417.5C 311.168,417.667 358.834,417.5 406.5,417C 411.667,415.167 415.167,411.667 417,406.5C 417.5,358.834 417.667,311.168 417.5,263.5C 424.166,264.737 429.833,263.07 434.5,258.5 Z"/></g>
</svg>
