<?xml version="1.0" encoding="UTF-8"?>
<!DOCTYPE svg PUBLIC "-//W3C//DTD SVG 1.1//EN" "http://www.w3.org/Graphics/SVG/1.1/DTD/svg11.dtd">
<svg xmlns="http://www.w3.org/2000/svg" version="1.1" width="512px" height="512px" style="shape-rendering:geometricPrecision; text-rendering:geometricPrecision; image-rendering:optimizeQuality; fill-rule:evenodd; clip-rule:evenodd" xmlns:xlink="http://www.w3.org/1999/xlink">
<g><path style="opacity:0.998" fill="#283a64" d="M 113.5,-0.5 C 208.167,-0.5 302.833,-0.5 397.5,-0.5C 416.24,6.11184 424.74,19.4452 423,39.5C 418.35,58.5803 406.183,68.247 386.5,68.5C 386.667,87.8362 386.5,107.17 386,126.5C 384.552,148.054 376.552,166.721 362,182.5C 340.366,201.799 319.033,221.465 298,241.5C 292.005,250.815 292.005,260.149 298,269.5C 319.7,290.201 341.7,310.534 364,330.5C 377.186,346.045 384.519,364.045 386,384.5C 386.5,403.83 386.667,423.164 386.5,442.5C 411.9,444.399 424.067,458.066 423,483.5C 419.831,497.829 411.331,507.163 397.5,511.5C 302.833,511.5 208.167,511.5 113.5,511.5C 94.766,504.893 86.266,491.56 88,471.5C 92.6503,452.42 104.817,442.753 124.5,442.5C 124.333,423.164 124.5,403.83 125,384.5C 126.481,364.045 133.814,346.045 147,330.5C 169.3,310.534 191.3,290.201 213,269.5C 218.995,260.149 218.995,250.815 213,241.5C 191.967,221.465 170.634,201.799 149,182.5C 134.448,166.721 126.448,148.054 125,126.5C 124.5,107.17 124.333,87.8362 124.5,68.5C 99.5824,66.7507 87.4157,53.4174 88,28.5C 90.7166,13.6238 99.2166,3.95715 113.5,-0.5 Z M 118.5,25.5 C 209.834,25.3333 301.167,25.5 392.5,26C 399.646,32.2746 398.98,37.608 390.5,42C 319.167,42.3333 247.833,42.6667 176.5,43C 169.567,46.3718 167.067,51.8718 169,59.5C 170.717,64.5513 174.217,67.3846 179.5,68C 239.832,68.5 300.166,68.6667 360.5,68.5C 360.667,87.1696 360.5,105.836 360,124.5C 358.825,137.361 354.491,149.028 347,159.5C 323.614,181.556 300.281,203.556 277,225.5C 264.335,245.487 264.335,265.487 277,285.5C 300.333,307.5 323.667,329.5 347,351.5C 354.885,361.818 359.218,373.484 360,386.5C 360.818,409.697 360.651,432.864 359.5,456C 359.884,462.04 362.884,466.04 368.5,468C 375.833,468.333 383.167,468.667 390.5,469C 398.98,473.392 399.646,478.725 392.5,485C 301.167,485.667 209.833,485.667 118.5,485C 111.354,478.725 112.02,473.392 120.5,469C 191.833,468.667 263.167,468.333 334.5,468C 341.433,464.628 343.933,459.128 342,451.5C 340.283,446.449 336.783,443.615 331.5,443C 271.168,442.5 210.834,442.333 150.5,442.5C 150.333,423.83 150.5,405.164 151,386.5C 151.782,373.484 156.115,361.818 164,351.5C 187.333,329.5 210.667,307.5 234,285.5C 247.641,262.872 246.308,241.205 230,220.5C 207.7,200.534 185.7,180.201 164,159.5C 156.509,149.028 152.175,137.361 151,124.5C 150.667,99.8333 150.333,75.1667 150,50.5C 148.833,46.6667 146.333,44.1667 142.5,43C 135.167,42.6667 127.833,42.3333 120.5,42C 111.954,37.4389 111.287,31.9389 118.5,25.5 Z"/></g>
<g><path style="opacity:0.967" fill="#1373e9" d="M 215.5,152.5 C 214.295,154.138 212.962,154.471 211.5,153.5C 212.708,152.766 214.041,152.433 215.5,152.5 Z"/></g>
<g><path style="opacity:1" fill="#1273ea" d="M 298.5,153.5 C 299.262,155.262 300.596,156.262 302.5,156.5C 307.588,164.932 305.922,171.765 297.5,177C 269.5,177.667 241.5,177.667 213.5,177C 207.373,174.147 204.706,169.314 205.5,162.5C 207.104,161.713 207.771,160.38 207.5,158.5C 208.08,156.251 209.413,154.585 211.5,153.5C 212.962,154.471 214.295,154.138 215.5,152.5C 241.761,151.343 268.095,151.177 294.5,152C 296.058,152.21 297.391,152.71 298.5,153.5 Z"/></g>
<g><path style="opacity:0.897" fill="#1372e9" d="M 298.5,153.5 C 300.404,153.738 301.738,154.738 302.5,156.5C 300.596,156.262 299.262,155.262 298.5,153.5 Z"/></g>
<g><path style="opacity:0.953" fill="#1373e9" d="M 207.5,158.5 C 207.771,160.38 207.104,161.713 205.5,162.5C 205.66,160.847 206.326,159.514 207.5,158.5 Z"/></g>
<g><path style="opacity:1" fill="#1272ea" d="M 252.5,327.5 C 251.486,326.326 250.153,325.66 248.5,325.5C 245.265,324.405 243.432,322.072 243,318.5C 242.507,306.33 248.341,301.164 260.5,303C 268.749,308.024 270.582,314.857 266,323.5C 262.183,327.41 257.683,328.743 252.5,327.5 Z"/></g>
<g><path style="opacity:0.956" fill="#1373e9" d="M 248.5,325.5 C 250.153,325.66 251.486,326.326 252.5,327.5C 250.62,327.771 249.287,327.104 248.5,325.5 Z"/></g>
<g><path style="opacity:1" fill="#1272ea" d="M 307.5,363.5 C 308.242,365.35 309.242,366.016 310.5,365.5C 324.527,377.536 334.027,392.536 339,410.5C 339.762,414.587 339.596,418.587 338.5,422.5C 336.5,422.5 335.5,423.5 335.5,425.5C 330.414,430.201 325.08,430.534 319.5,426.5C 319.938,426.565 320.272,426.399 320.5,426C 319.756,424.961 318.756,424.461 317.5,424.5C 316.094,424.027 315.427,423.027 315.5,421.5C 315.843,419.517 315.176,418.183 313.5,417.5C 310.733,407.965 306.399,399.298 300.5,391.5C 300.167,389.167 298.833,387.833 296.5,387.5C 293.793,385.157 291.126,382.823 288.5,380.5C 288.027,379.094 287.027,378.427 285.5,378.5C 280.829,376.497 276.162,374.497 271.5,372.5C 270.828,371.733 269.995,371.066 269,370.5C 268.601,370.728 268.435,371.062 268.5,371.5C 247.277,368.132 228.943,373.799 213.5,388.5C 213.565,388.062 213.399,387.728 213,387.5C 211.961,388.244 211.461,389.244 211.5,390.5C 206.28,396.398 202.28,403.064 199.5,410.5C 197.824,411.183 197.157,412.517 197.5,414.5C 196.681,424.667 191.348,429.334 181.5,428.5C 180.828,427.733 179.995,427.066 179,426.5C 178.601,426.728 178.435,427.062 178.5,427.5C 173.509,425.37 170.842,421.537 170.5,416C 172.466,405.252 176.466,395.419 182.5,386.5C 184.727,385.599 185.727,383.933 185.5,381.5C 196.424,366.241 210.757,355.575 228.5,349.5C 228.435,349.938 228.601,350.272 229,350.5C 229.995,349.934 230.828,349.267 231.5,348.5C 257.563,340.621 281.896,344.454 304.5,360C 305.71,361.039 306.71,362.206 307.5,363.5 Z"/></g>
<g><path style="opacity:0.983" fill="#1373e9" d="M 231.5,348.5 C 230.828,349.267 229.995,349.934 229,350.5C 228.601,350.272 228.435,349.938 228.5,349.5C 229.209,348.596 230.209,348.263 231.5,348.5 Z"/></g>
<g><path style="opacity:0.977" fill="#1373e9" d="M 307.5,363.5 C 309.027,363.427 310.027,364.094 310.5,365.5C 309.242,366.016 308.242,365.35 307.5,363.5 Z"/></g>
<g><path style="opacity:0.957" fill="#1373e9" d="M 271.5,372.5 C 270.209,372.737 269.209,372.404 268.5,371.5C 268.435,371.062 268.601,370.728 269,370.5C 269.995,371.066 270.828,371.733 271.5,372.5 Z"/></g>
<g><path style="opacity:0.993" fill="#1373e9" d="M 285.5,378.5 C 287.027,378.427 288.027,379.094 288.5,380.5C 286.973,380.573 285.973,379.906 285.5,378.5 Z"/></g>
<g><path style="opacity:0.818" fill="#1372e9" d="M 185.5,381.5 C 185.727,383.933 184.727,385.599 182.5,386.5C 183.11,384.566 184.11,382.899 185.5,381.5 Z"/></g>
<g><path style="opacity:0.992" fill="#1373e9" d="M 213.5,388.5 C 213.167,389.5 212.5,390.167 211.5,390.5C 211.461,389.244 211.961,388.244 213,387.5C 213.399,387.728 213.565,388.062 213.5,388.5 Z"/></g>
<g><path style="opacity:0.994" fill="#1373e9" d="M 296.5,387.5 C 298.833,387.833 300.167,389.167 300.5,391.5C 298.833,390.5 297.5,389.167 296.5,387.5 Z"/></g>
<g><path style="opacity:0.936" fill="#1373e9" d="M 199.5,410.5 C 199.011,411.995 198.345,413.329 197.5,414.5C 197.157,412.517 197.824,411.183 199.5,410.5 Z"/></g>
<g><path style="opacity:0.962" fill="#1373e9" d="M 313.5,417.5 C 315.176,418.183 315.843,419.517 315.5,421.5C 314.655,420.329 313.989,418.995 313.5,417.5 Z"/></g>
<g><path style="opacity:0.998" fill="#1373e9" d="M 338.5,422.5 C 337.833,423.833 336.833,424.833 335.5,425.5C 335.5,423.5 336.5,422.5 338.5,422.5 Z"/></g>
<g><path style="opacity:0.998" fill="#1373e9" d="M 317.5,424.5 C 318.756,424.461 319.756,424.961 320.5,426C 320.272,426.399 319.938,426.565 319.5,426.5C 318.5,426.167 317.833,425.5 317.5,424.5 Z"/></g>
<g><path style="opacity:0.994" fill="#1373e9" d="M 181.5,428.5 C 180.209,428.737 179.209,428.404 178.5,427.5C 178.435,427.062 178.601,426.728 179,426.5C 179.995,427.066 180.828,427.733 181.5,428.5 Z"/></g>
</svg>
