<?xml version="1.0" encoding="UTF-8"?>
<!DOCTYPE svg PUBLIC "-//W3C//DTD SVG 1.1//EN" "http://www.w3.org/Graphics/SVG/1.1/DTD/svg11.dtd">
<svg xmlns="http://www.w3.org/2000/svg" version="1.1" width="512px" height="512px" style="shape-rendering:geometricPrecision; text-rendering:geometricPrecision; image-rendering:optimizeQuality; fill-rule:evenodd; clip-rule:evenodd" xmlns:xlink="http://www.w3.org/1999/xlink">
<g><path style="opacity:0.998" fill="#1272ea" d="M 229.5,18.5 C 248.547,18.0648 267.547,18.5648 286.5,20C 291.888,22.0551 296.054,25.5551 299,30.5C 302.504,39.017 306.004,47.517 309.5,56C 317.413,58.9711 325.247,62.1377 333,65.5C 341.085,61.8052 349.251,58.3052 357.5,55C 362.167,54.3333 366.833,54.3333 371.5,55C 375.336,57.0836 379.003,59.417 382.5,62C 394.731,73.5623 406.231,85.729 417,98.5C 420.866,106.293 420.866,114.293 417,122.5C 414.304,128.726 411.47,134.893 408.5,141C 411.838,149.017 415.171,157.017 418.5,165C 426.913,168.138 435.246,171.471 443.5,175C 450.558,178.723 454.391,184.556 455,192.5C 455.667,209.833 455.667,227.167 455,244.5C 454.553,251.56 451.387,257.06 445.5,261C 436.507,264.939 427.507,268.773 418.5,272.5C 415.304,280.391 411.971,288.225 408.5,296C 412.118,301.339 413.284,307.172 412,313.5C 405.667,320.167 399.333,320.167 393,313.5C 388.635,306.748 386.969,299.415 388,291.5C 391.774,280.616 396.108,269.95 401,259.5C 402.5,258 404,256.5 405.5,255C 415.134,251.016 424.634,246.849 434,242.5C 434.667,226.5 434.667,210.5 434,194.5C 425.009,190.291 415.842,186.458 406.5,183C 402.509,180.011 399.676,176.178 398,171.5C 395.195,164.086 392.195,156.753 389,149.5C 387,143.833 387,138.167 389,132.5C 392.443,126.049 395.443,119.383 398,112.5C 398.667,111.167 398.667,109.833 398,108.5C 387.833,97 377,86.1667 365.5,76C 364.167,75.3333 362.833,75.3333 361.5,76C 354.864,78.9831 348.197,81.9831 341.5,85C 334.722,87.1419 328.055,86.8086 321.5,84C 313.167,80.3333 304.833,76.6667 296.5,73C 294.667,71.1667 292.833,69.3333 291,67.5C 287.748,58.0727 283.914,48.906 279.5,40C 263.5,39.3333 247.5,39.3333 231.5,40C 227.223,48.1603 223.723,56.6603 221,65.5C 219.207,68.2953 217.04,70.7953 214.5,73C 204.282,77.6092 193.948,81.9426 183.5,86C 179.833,86.6667 176.167,86.6667 172.5,86C 164.162,82.4971 155.828,78.9971 147.5,75.5C 145.734,76.0909 144.067,76.9242 142.5,78C 132.303,87.8628 122.47,98.0294 113,108.5C 112.333,110.167 112.333,111.833 113,113.5C 115.394,119.287 118.06,124.954 121,130.5C 123.838,136.705 124.171,143.038 122,149.5C 118,158.833 114,168.167 110,177.5C 107.795,180.04 105.295,182.207 102.5,184C 93.9276,186.746 85.5943,190.079 77.5,194C 76.6733,197.594 76.0067,201.261 75.5,205C 76.8333,214 76.8333,223 75.5,232C 75.985,235.865 76.6517,239.698 77.5,243.5C 86.9542,247.04 96.2875,250.874 105.5,255C 106.667,256.167 107.833,257.333 109,258.5C 114.367,267.546 117.701,277.213 119,287.5C 115.324,294.414 109.824,296.248 102.5,293C 101.667,292.167 100.833,291.333 100,290.5C 97.6439,283.923 94.8106,277.59 91.5,271.5C 82.6333,268.489 73.9666,264.989 65.5,261C 59.9367,257.386 56.77,252.219 56,245.5C 55.3333,227.5 55.3333,209.5 56,191.5C 56.6444,185.377 59.4777,180.544 64.5,177C 73.6246,172.348 82.9579,168.181 92.5,164.5C 95.3914,157.05 98.5581,149.717 102,142.5C 97.3076,131.928 93.4742,120.928 90.5,109.5C 90.9482,104.273 92.7815,99.6065 96,95.5C 106.47,84.0292 117.303,72.8625 128.5,62C 131.997,59.417 135.664,57.0836 139.5,55C 144.167,54.3333 148.833,54.3333 153.5,55C 161.749,58.3052 169.915,61.8052 178,65.5C 185.753,62.1377 193.587,58.9711 201.5,56C 205.134,46.7691 208.967,37.6025 213,28.5C 217.145,22.6878 222.645,19.3545 229.5,18.5 Z"/></g>
<g><path style="opacity:0.998" fill="#1272ea" d="M 249.5,121.5 C 294.183,121.399 326.016,141.399 345,181.5C 358.692,219.364 352.692,253.697 327,284.5C 315.944,296.214 302.777,304.714 287.5,310C 276.553,312.053 271.72,307.553 273,296.5C 273.785,294.714 274.951,293.214 276.5,292C 318.219,275.396 335.719,244.896 329,200.5C 318.643,166.477 295.81,147.31 260.5,143C 223.836,143.009 198.336,159.842 184,193.5C 175.139,222.716 180.805,248.716 201,271.5C 205.686,275.188 210.019,279.188 214,283.5C 216.019,294.48 211.519,299.313 200.5,298C 173.277,278.73 159.277,252.23 158.5,218.5C 160.036,179.563 177.703,150.729 211.5,132C 223.694,126.317 236.361,122.817 249.5,121.5 Z"/></g>
<g><path style="opacity:0.999" fill="#283b63" d="M 288.5,182.5 C 300.469,183.578 303.969,189.578 299,200.5C 282.805,217.029 266.305,233.196 249.5,249C 246.167,249.667 242.833,249.667 239.5,249C 229.303,239.137 219.47,228.971 210,218.5C 209.552,205.407 215.385,201.574 227.5,207C 233.333,212.833 239.167,218.667 245,224.5C 259.116,209.88 273.616,195.88 288.5,182.5 Z"/></g>
<g><path style="opacity:0.998" fill="#283b63" d="M 335.5,371.5 C 336.327,372.439 336.994,372.105 337.5,370.5C 342.474,367.009 347.808,364.009 353.5,361.5C 354.779,362.715 355.779,362.382 356.5,360.5C 356.5,359.833 356.833,359.5 357.5,359.5C 358.779,360.715 359.779,360.382 360.5,358.5C 375.307,350.262 390.307,342.262 405.5,334.5C 406.779,335.715 407.779,335.382 408.5,333.5C 423.601,324.367 438.935,324.2 454.5,333C 473.516,346.887 479.349,365.054 472,387.5C 468.335,396.831 462.168,403.998 453.5,409C 402.167,435.667 350.833,462.333 299.5,489C 289.09,492.354 278.423,493.354 267.5,492C 226.257,488.059 185.09,483.892 144,479.5C 132.585,485.958 120.419,490.291 107.5,492.5C 99.7192,492.192 93.5525,488.859 89,482.5C 72.1575,452.151 55.8241,421.484 40,390.5C 36.1656,382.532 35.6656,374.532 38.5,366.5C 40.1054,365.994 40.4387,365.327 39.5,364.5C 40.4194,361.911 42.086,359.911 44.5,358.5C 44.4346,358.938 44.6012,359.272 45,359.5C 45.8333,358.667 46.6667,357.833 47.5,357C 47.2716,356.601 46.9382,356.435 46.5,356.5C 54.8045,351.01 63.4712,346.01 72.5,341.5C 73.779,342.715 74.779,342.382 75.5,340.5C 91.6403,331.595 107.974,322.928 124.5,314.5C 125.779,315.715 126.779,315.382 127.5,313.5C 137.922,306.152 149.255,304.319 161.5,308C 207.167,322.333 252.833,336.667 298.5,351C 310.767,356.267 318.267,365.434 321,378.5C 325.657,375.755 330.49,373.421 335.5,371.5 Z M 297.5,394.5 C 296.5,394.833 295.833,395.5 295.5,396.5C 291.146,400.157 286.146,401.324 280.5,400C 250.669,390.21 220.669,381.043 190.5,372.5C 188.955,372.511 187.622,372.844 186.5,373.5C 185.508,373.328 184.842,373.662 184.5,374.5C 181.448,376.44 180.115,379.273 180.5,383C 180.147,386.2 181.147,388.867 183.5,391C 195.007,395.336 206.673,399.169 218.5,402.5C 219.708,403.234 221.041,403.567 222.5,403.5C 240.355,409.395 258.355,415.229 276.5,421C 287.366,423.036 297.366,421.036 306.5,415C 310.481,410.688 314.814,406.688 319.5,403C 353.5,385.333 387.5,367.667 421.5,350C 439.692,345.101 450.692,351.934 454.5,370.5C 454.05,378.908 450.384,385.408 443.5,390C 423.669,400.364 404.002,410.864 384.5,421.5C 383.391,421.557 382.391,421.89 381.5,422.5C 374.477,425.675 367.811,429.341 361.5,433.5C 360.391,433.557 359.391,433.89 358.5,434.5C 351.477,437.675 344.811,441.341 338.5,445.5C 337.391,445.557 336.391,445.89 335.5,446.5C 319.249,455.459 302.582,463.625 285.5,471C 237.594,467.993 189.761,463.826 142,458.5C 130.875,462.432 119.875,466.766 109,471.5C 107.395,470.899 106.062,469.899 105,468.5C 88.2501,438.168 72.4168,407.334 57.5,376C 57.7591,374.739 58.4258,373.739 59.5,373C 87.0083,358.079 114.675,343.412 142.5,329C 147.818,327.071 153.151,327.071 158.5,329C 202.772,343.202 247.105,357.202 291.5,371C 300.776,376.993 302.776,384.826 297.5,394.5 Z"/></g>
<g><path style="opacity:0.998" fill="#283b63" d="M 127.5,313.5 C 126.779,315.382 125.779,315.715 124.5,314.5C 125.391,313.89 126.391,313.557 127.5,313.5 Z"/></g>
<g><path style="opacity:0.998" fill="#283b63" d="M 408.5,333.5 C 407.779,335.382 406.779,335.715 405.5,334.5C 406.391,333.89 407.391,333.557 408.5,333.5 Z"/></g>
<g><path style="opacity:0.998" fill="#283b63" d="M 75.5,340.5 C 74.779,342.382 73.779,342.715 72.5,341.5C 73.391,340.89 74.391,340.557 75.5,340.5 Z"/></g>
<g><path style="opacity:1" fill="#283b63" d="M 46.5,356.5 C 46.9382,356.435 47.2716,356.601 47.5,357C 46.6667,357.833 45.8333,358.667 45,359.5C 44.6012,359.272 44.4346,358.938 44.5,358.5C 44.8333,357.5 45.5,356.833 46.5,356.5 Z"/></g>
<g><path style="opacity:0.998" fill="#283b63" d="M 360.5,358.5 C 359.779,360.382 358.779,360.715 357.5,359.5C 358.391,358.89 359.391,358.557 360.5,358.5 Z"/></g>
<g><path style="opacity:0.998" fill="#283b63" d="M 356.5,360.5 C 355.779,362.382 354.779,362.715 353.5,361.5C 354.391,360.89 355.391,360.557 356.5,360.5 Z"/></g>
<g><path style="opacity:1" fill="#283b63" d="M 39.5,364.5 C 40.4387,365.327 40.1054,365.994 38.5,366.5C 38.3284,365.508 38.6618,364.842 39.5,364.5 Z"/></g>
<g><path style="opacity:0.996" fill="#283b63" d="M 337.5,370.5 C 336.994,372.105 336.327,372.439 335.5,371.5C 335.842,370.662 336.508,370.328 337.5,370.5 Z"/></g>
<g><path style="opacity:0.996" fill="#283b63" d="M 186.5,373.5 C 185.994,375.105 185.327,375.439 184.5,374.5C 184.842,373.662 185.508,373.328 186.5,373.5 Z"/></g>
<g><path style="opacity:0.996" fill="#283b63" d="M 297.5,394.5 C 297.938,394.435 298.272,394.601 298.5,395C 297.667,395.833 296.833,396.667 296,397.5C 295.601,397.272 295.435,396.938 295.5,396.5C 295.833,395.5 296.5,394.833 297.5,394.5 Z"/></g>
<g><path style="opacity:0.99" fill="#283b63" d="M 218.5,402.5 C 219.962,401.529 221.295,401.862 222.5,403.5C 221.041,403.567 219.708,403.234 218.5,402.5 Z"/></g>
<g><path style="opacity:0.998" fill="#283b63" d="M 384.5,421.5 C 383.779,423.382 382.779,423.715 381.5,422.5C 382.391,421.89 383.391,421.557 384.5,421.5 Z"/></g>
<g><path style="opacity:0.998" fill="#283b63" d="M 361.5,433.5 C 360.779,435.382 359.779,435.715 358.5,434.5C 359.391,433.89 360.391,433.557 361.5,433.5 Z"/></g>
<g><path style="opacity:0.998" fill="#283b63" d="M 338.5,445.5 C 337.779,447.382 336.779,447.715 335.5,446.5C 336.391,445.89 337.391,445.557 338.5,445.5 Z"/></g>
</svg>
