<svg fill="white" id="Icons" xmlns="http://www.w3.org/2000/svg" viewBox="0 0 1435.56041 1436.34825"><defs></defs><g id="Search"><path class="cls-1" d="M1650.72867,1543.51517q-157.37-156.97323-314.62569-314.06057c-9.34566-9.28439-9.81646-14.65531-1.92136-25.63447,103.17122-143.47421,139.49962-302.97649,105.27846-476.00816-65.13331-329.33291-388.659-541.777-716.55624-473.07945C443.18233,313.33676,241.98,561.68623,242.70957,857.57579c-.82587,31.4177,3.72041,72.49573,12.27652,112.97656C346.01228,1401.219,850.4389,1593.788,1205.256,1333.14166c11.199-8.22668,16.00481-5.3968,24.16784,2.80408q154.93459,155.65239,310.45341,310.723c5.8339,5.82935,11.67755,11.80232,18.26841,16.69564,42.11318,31.26589,102.36266,10.68767,116.79285-39.78692C1684.03234,1591.769,1673.32667,1566.05615,1650.72867,1543.51517ZM847.62756,1299.95132c-249.77276.7269-453.608-202.2437-454.40051-452.473-.78909-249.13794,202.89127-453.48471,452.966-454.44778,249.32575-.96029,453.17993,202.53913,453.81327,453.02318C1300.63938,1096.44016,1098.53706,1299.22125,847.62756,1299.95132Z" transform="translate(-242.61372 -241.82588)"/></g></svg>