<svg id="Logo_Sia" data-name="Logo Sia" xmlns="http://www.w3.org/2000/svg" viewBox="0 0 1260.08375 1436.34825"><defs><style>.cls-1{fill:#fff;}</style></defs><path class="cls-1" d="M329.60528,841.8385c2.5512,1.68977,1.80756,4.32729,1.81382,6.67188q.06606,24.74778.00006,49.49584c-.00611,2.35132.69574,4.97981-1.81388,6.68774Z" transform="translate(-329.60528 -241.82588)"/><path class="cls-1" d="M330.311,840.12416c6.3145-14.38919,7.095-30.11832,10.87963-45.12515,10.20055-40.44684,4.10573-81.36806,3.031-122.12862-.34055-12.91555-1.11459-25.82161-1.83773-38.72375-.19988-3.56619,1.08019-6.58571,2.44612-9.69084,5.93158-13.48413,11.98629-26.91817,17.64649-40.51609,3.26238-7.83743,7.50457-15.13608,7.952-24.26067.78816-16.07351-2.23025-29.86168-11.5223-43.89161-14.36278-21.68615-18.11532-46.18452-11.28542-72.24685,7.06648-26.96512,13.88872-53.96749,18.68858-81.58787,2.60412-14.98524,10.83219-30.56577,26.83273-38.62162C439.66308,299.90892,488.463,286.06,540.996,287.26884c10.43962.24024,20.8981-.15612,31.34376-.42135,7.62735-.19368,14.54629-2.319,19.69247-8.41222,2.4686-2.92291,5.92542-2.74369,9.25516-3.29143,52.21661-8.58967,104.84993-6.644,157.4158-6.25771,39.421.28972,78.67483-1.7627,117.684-7.69331a32.61048,32.61048,0,0,1,5.50742-.39592c123.983,2.4153,247.92765-5.14538,371.89785-1.66031,41.49858,1.16662,82.07176-5.51916,122.88359-10.74006,16.15858-2.06712,32.282-4.41457,48.45048-6.398,14.87129-1.8243,34.43942,11.11147,40.99292,24.54733,5.333,10.93358,2.791,18.97-1.95346,29.55362-9.167,20.44881-23.556,27.68215-45.07474,29.48408-34.33833,2.8754-68.6068,5.93195-103.07146,5.43409-54.44863-.78656-108.936.15875-163.33868-2.54628-32.54172-1.61807-65.1017-3.47385-97.63384-4.75794-35.95088-1.41905-71.73708,4.67644-107.57708,7.61938-75.3979,6.19116-150.72682,12.98712-226.37144,15.93371-50.45406,1.96535-100.88406,1.75214-151.33322,1.56592a29.37136,29.37136,0,0,0-14.749,3.976c-20.95209,11.40875-40.06254,26.52864-63.84564,32.28772-11.90061,2.88174-23.79967,5.89909-35.85167,7.96788-5.45665.93668-6.99106,2.80349-6.95194,8.17833.22181,30.465-.1232,60.93443.15375,91.39846a186.81461,186.81461,0,0,1-4.761,41.85572c-2.80818,12.79966-2.36605,25.4173-1.3001,38.3963,1.60892,19.59042,1.81046,39.31744,2.05838,58.99332.289,22.93854,3.68049,44.62074,13.64285,66.02124,13.38666,28.7562,15.70658,60.45661,16.49588,91.89148.622,24.77045,1.19242,49.2939,18.15138,69.7284,1.90977,2.30112,1.02216,5.35372,1.02868,8.0713.09324,38.77564,1.90487,77.65757-.40867,116.29154-1.65586,27.65169-3.39822,55.4477-6.72423,83.06292a280.00209,280.00209,0,0,0,.339,67.10082c.60412,5.0138,2.39818,6.70392,7.566,6.46081,104.28312-4.90672,208.54152.57915,312.81282.69569,59.05809.066,118.12321-1.40356,177.18811-.36016a15.53208,15.53208,0,0,0,11.55267-4.51635c15.79923-14.86944,33.28419-21.22346,56.11465-20.67969,42.04768,1.00153,84.22146-2.0566,126.30013-4.24191,15.5662-.8084,31.196-2.463,46.35453-7.06729,19.60012-5.9535,38.85262.3938,58.20355,2.5608,14.66373,1.64217,29.33579,3.21795,43.98194,5.00489,3.63987.44407,6.66912.21082,8.82271-3.16436,9.93263-15.56643,25.178-24.841,40.41632-34.1432,23.708-14.47254,41.02222-35.29542,54.381-58.93761,6.83342-12.09348,9.30567-26.811,9.27108-40.94855-.08891-36.30806-.7872-72.69845,2.45783-108.82065,3.52122-39.19374.33411-77.96285-2.55981-116.876-1.76427-23.72413-.3536-47.57457,2.55947-70.94662,5.36009-43.00631-1.71255-84.43109-10.94418-125.90244-.93606-4.20475-1.56505-8.17088.50482-12.5162,13.85962-29.09588,27.45861-58.316,41.17343-87.481a21.3699,21.3699,0,0,1,2.384-2.96284c7.72191,11.93436,16.97969,22.65018,21.981,35.07949,4.19573,10.427,4.02806,22.81555,4.741,34.40032,1.96609,31.948,2.00136,63.95875,1.91076,95.95739-.01239,4.36188,1.45011,7.34757,4.36476,10.49766a147.05932,147.05932,0,0,0,30.64348,24.946c12.13073,7.54717,15.1504,13.64424,9.13439,25.9185-8.36534,17.06763-8.884,34.743-8.729,52.98073q1.0351,121.86156,1.60426,243.727c.05488,8.90855.90169,17.394,6.69853,24.962a38.22413,38.22413,0,0,1,7.30893,18.65944c2.78157,21.937,6.03528,43.76589,2.91251,66.04491-1.742,12.42767-1.72652,24.23971,8.43441,34.9777,8.49807,8.98047,13.82288,20.94591,20.69573,31.49646,1.973,3.02888,2.225,6.21122,2.28769,9.64337.28644,15.69633.20271,31.34329-2.127,46.94387-2.26379,15.159-11.67133,26.01318-21.43471,36.619-1.24931,1.357-4.64771.89243-7.06227.99488-39.82587,1.69221-79.20641-3.281-118.54492-8.35442-11.71257-1.51052-21.70932-8.37054-32.19647-13.331-13.87348-6.56235-28.16479-6.77221-42.13924-2.85074-22.62295,6.34832-45.19305,11.74313-68.86113,8.95482-20.17109-2.37635-39.97849-7.25134-59.2844-13.02676-38.32685-11.46564-77.43774-7.80035-116.3302-8.51244-6.11884-.11215-12.241,3.65007-18.46925,5.18392-26.72842,6.58231-53.73416,11.839-80.86425,16.45875a38.16539,38.16539,0,0,1-6.44606.21437q-197.98964-.44784-395.913-5.58866a68.56866,68.56866,0,0,1-20.71574-3.9385c-25.14774-8.91-51.06633-9.40554-77.06463-7.18755-25.83357,2.204-49.61928-1.6514-72.0867-15.67485-12.91086-8.05845-27.55668-13.41764-41.65356-19.44942-4.959-2.12186-6.67534-5.28345-7.653-10.19293-2.74717-13.79538-.88589-27.50314-.53447-41.317.69627-27.36964-.00125-54.77268.14285-82.16046.02312-4.39316-1.80165-7.62977-4.02966-10.9385-14.07707-20.905-27.38945-42.38531-42.503-62.51222a101.39939,101.39939,0,0,1-19.89358-49.6042c-.46865-3.717-.17534-7.94332-3.59728-10.7829v-3.69324c2.50681-1.706,1.80574-4.33157,1.81185-6.68025q.06428-24.72008-.00006-49.44043c-.00626-2.342.73655-4.97654-1.81179-6.66441Z" transform="translate(-329.60528 -241.82588)"/><path class="cls-1" d="M1501.85131,1623.55316c0,10.76876-.38785,21.55679.14908,32.29873.31,6.20315-1.59626,8.73549-7.83955,9.31662-25.71034,2.39348-51.42046,4.85853-77.07006,7.82131-49.36174,5.70193-98.08537-2.45469-146.98669-6.448-21.80358-1.78046-43.634-1.56349-65.44549-2.2287-37.20093-1.13453-74.42732-1.42791-111.64182-2.13516-4.03567-.07664-7.78271.15588-11.52726,2.19884-18.49533,10.09081-38.77865,14.16648-59.41287,13.77121-56.2493-1.07705-112.51595-2.48039-168.70372-5.22732-68.16157-3.332-136.31568-6.92235-204.5508-7.43968-24.12991-.18315-44.52876-9.19456-65.00271-19.82367-7.23757-3.75749-9.12315-8.73053-7.30561-16.4814a115.87631,115.87631,0,0,0,2.94336-21.902c.28466-7.43686,2.86109-9.67954,10.57729-9.39743,51.02607,1.86623,102.0838,2.87092,153.10826,4.77265,34.3745,1.28116,67.80864-5.41216,101.66436-9.35257,62.48448-7.27242,124.38081-21.0469,187.86737-18.79869,5.376.19036,13.36816,3.98763,16.49178-5.592.36041-1.10533,5.68861-.78614,8.7147-.79651,50.76667-.1729,101.409,3.62133,152.12643,4.85718,78.71922,1.91842,157.46036,2.79371,236.20353,1.82712,17.72374-.21752,34.69937,3.1483,51.69541,7.46268,4.37,1.10916,3.20762,3.819,3.234,6.22118.12834,11.6906.058,23.38346.058,35.07553Q1501.52487,1623.55305,1501.85131,1623.55316Z" transform="translate(-329.60528 -241.82588)"/><path class="cls-1" d="M866.05564,822.67013c2.15635,28.09976-1.9209,55.88861-4.4695,83.68941a101.85519,101.85519,0,0,1-10.98982,36.8853c-2.79081,5.44642-8.69831,8.30669-12.83461,12.81746a468.96829,468.96829,0,0,1-53.33758,49.20189c-5.19033,4.14548-11.29891,4.60139-17.01113,6.47568-23.26547,7.63438-46.47786,15.23067-70.69622,19.85736-31.85383,6.08526-63.62117,2.611-95.44617,1.872-9.91241-.23009-20.40967-12.69478-23.171-26.62857-1.75323-8.84719,5.0012-20.45022,14.42124-25.02151C631.76,962.77743,673.176,950.89478,716.058,943.50232c27.28365-4.70339,53.87733-11.5549,77.44307-27.27991,6.54568-4.36781,10.2333-9.86067,10.80561-17.15174,4.20909-53.62142,3.28014-106.97329-11.40584-159.17351a25.85913,25.85913,0,0,0-17.26075-17.63024c-21.83637-7.06555-43.01645-16.12913-65.90121-19.94627-11.24691-1.876-22.51655-3.63311-33.82814-3.99623-22.75231-.73044-45.222-3.7499-67.69368-6.88217-9.27984-1.2935-17.86372-3.96833-22.52044-13.55917-1.23244-2.53834-4.46863-4.10246-6.78237-6.11668a54.13283,54.13283,0,0,1-17.17316-27.16081c-6.16147-21.21559-5.64-42.41749-5.19726-63.84886.16113-7.8004,1.84133-15.20568,7.30631-21.32554,5.0019-5.60129,7.65647-12.46283,10.14526-19.44981,4.77023-13.39169,12.20049-24.76849,25.45171-31.26975,3.55725-1.74524,5.337-4.89331,7.40733-7.94295,9.44881-13.91863,18.0217-28.58123,28.75818-41.431,9.33685-11.17467,23.13994-17.12833,36.88048-21.56677,15.168-4.89951,30.71607-8.67254,46.20455-12.50821,8.1738-2.02424,15.94414-4.50028,22.106-10.52391,2.65373-2.59421,5.579-3.07731,9.24262-2.47808,14.85658,2.43,29.73657,4.75889,44.66522,6.68,4.49028.57782,6.11655,2.05427,6.66258,6.6825,1.476,12.50992,3.80231,24.79962-2.09866,37.00758-4.94028,10.22046-12.53532,18.45047-20.7485,25.47459-4.12863,3.53091-12.14992,2.95866-18.46969,3.40037-33.04863,2.30988-65.27879,8.75476-94.53229,24.43559-20.597,11.04064-41.07937,23.20217-54.82169,43.4685-3.77028,5.56012-7.46906,11.65274-13.35782,15.11535-8.26516,4.85991-9.31519,11.952-8.5065,20.36661,1.08854,11.32639,1.73819,22.354,11.251,31.01015,6.25185,5.68892,12.07929,7.52374,20.742,8.48162,18.01739,1.99232,36.23859.225,54.12323,4.10288,18.73132,4.06146,38.01024,1.9382,57.01326,3.51525,24.51227,2.03428,49.117,3.02586,73.69809,4.09555,4.824.20995,7.9928,1.76854,10.73646,5.58173,2.297,3.19251,4.26222,7.034,8.15151,8.598,22.69975,9.12876,28.49045,29.43707,33.71182,50.29467,4.21743,16.84712,1.49124,34.57288,5,51.00587C867.66182,782.16362,863.91951,802.42871,866.05564,822.67013Z" transform="translate(-329.60528 -241.82588)"/><path class="cls-1" d="M1201.83945,658.01864c22.22748-.27439,44.21085,2.29067,66.15967,5.31563,2.7236.37535,5.76986,1.62061,5.54652-3.143-1.15-24.52971,1.6481-49.13978-2.09736-73.643-2.56775-16.79845-11.28871-30.8095-18.95654-45.32078-4.67886-8.85486-14.1997-11.78771-22.54632-11.77708-20.204.02575-40.69121-.86733-60.54651,4.1767-19.17886,4.87215-37.63317,11.38891-51.1601,27.18569-4.97866,5.814-9.02238,10.70979-18.82853,4.53678-6.65983-4.19234-15.32337-5.40576-20.31983-12.74034-5.938-8.71673-7.54889-17.64661-2.913-27.68815,4.55919-9.87537,12.35931-16.88994,22.44249-16.47489,14.55132.599,26.9916-4.00257,39.74366-9.42592,17.53477-7.45746,36.25462-9.28072,55.02129-9.82913,15.6751-.458,31.38644-.12438,47.06989.29831,11.64163.31375,21.06793,3.70834,29.12958,14.02029,11.73961,15.01661,23.10264,29.97631,31.85346,46.989,9.54489,18.55642,13.1869,38.51492,12.64828,58.78536-.7099,26.71136,3.82253,52.63325,8.03754,78.6978.59665,3.6894-.05533,7.24982-.06254,10.8372-.08688,43.0834-.177,86.17585.71948,129.24541.20779,9.98668,7.88643,17.74267,14.26708,25.27849a31.53591,31.53591,0,0,0,3.998,3.82675c16.5382,13.69124,25.5456,29.963,23.50954,52.71867-1.86242,20.815-.41084,20.39465-21.17014,20.99241-12.08532.348-22.1703-2.472-31.03211-10.76685-9.25428-8.662-17.38512-1.13819-24.98106,3.143-10.29479,5.80219-20.50936,10.25768-32.72556,9.62426-12.894-.66848-25.84015-.56169-38.76045-.44672-27.36543.24339-54.46678-3.992-81.505-6.7343-23.56481-2.3901-46.4956-12.08869-62.593-31.42106-9.12842-10.96278-12.95579-25.02072-15.10685-38.90171a401.70553,401.70553,0,0,1-4.58184-54.21838c-.21382-11.74318.11933-23.15646,4.07815-34.483,3.08114-8.81523,1.80839-18.43757.87138-27.46453-2.36594-22.79365,9.55154-37.62928,25.52047-51.04256,12.85567-10.79834,27.68544-14.98231,44.06735-16.34632,12.20054-1.01587,25.58757.15918,34.11274-12.17,1.56573-2.26435,5.08385-1.65691,7.86857-1.64823C1179.69162,658.03893,1190.76556,658.01864,1201.83945,658.01864Zm84.64993,121.13718.30323.00011c0-12.29974.033-24.59959-.024-36.899-.01375-2.96858.319-5.77509-2.29106-8.4455-21.51793-22.016-49.60244-32.63975-78.07542-38.59381-20.361-4.25778-42.55047-2.00591-64.02175,2.23546-16.06071,3.17261-25.55906,9.35294-24.80905,26.47667.46786,10.68254-8.2229,18.093-8.90942,28.63439-1.95932,30.08293-1.76387,60.24086-3.5282,90.26214-.76354,12.99334,1.94163,21.66566,11.541,29.12236,4.18447,3.25058,6.42026,8.57235,13.06493,9.14784,22.71788,1.96756,45.45464,1.33565,68.18813,1.387a138.14335,138.14335,0,0,0,50.2858-9.12535c13.70068-5.22749,25.42627-10.449,26.03306-27.42086.05758-1.60881,1.51491-3.40651,2.7587-4.69522,8.10469-8.39709,9.26994-18.9792,9.44584-29.80938C1286.62607,800.67632,1286.48938,789.915,1286.48938,779.15582Z" transform="translate(-329.60528 -241.82588)"/><path class="cls-1" d="M609.22842,1356.41176c3.31625,13.24249-2.02147,26.50279-11.24153,38.75964-20.11035,26.73407-25.69772,59.40462-36.51372,89.92638-3.71643,10.48744-7.31719,13.58061-18.19219,11.89675a695.94681,695.94681,0,0,0-78.56022-7.81929c-18.13524-.73452-35.28534-9.835-52.85794-15.25625-3.86516-1.19235-2.23-3.8-1.51013-5.91812,6.78729-19.97041,12.2341-40.51891,29.07224-55.39286,10.27159-9.07362,16.99258-21.12241,22.5913-33.3947,9.42628-20.66211,26.96311-31.97311,45.626-42.42583,14.61491-8.18548,30.84881-11.70954,46.54831-16.82088,4.50234-1.46578,8.5447.01318,12.65378.72776,11.49473,1.99844,22.83119,5.068,34.37992,6.53609,7.005.89051,8.63284,3.8809,8.10126,10.16306C608.86012,1342.89314,609.22842,1348.46354,609.22842,1356.41176Z" transform="translate(-329.60528 -241.82588)"/><path class="cls-1" d="M929.0802,862.89645c0-15.369.56945-30.765-.15922-46.09946-.73739-15.51813-.33765-30.58352,6.94108-44.772a18.66344,18.66344,0,0,0,1.81667-9.87436c-1.52837-22.36294-2.93623-44.70531-14.05079-65.04978-5.32273-9.74282-2.17787-20.44861-2.43434-30.74647a3.03193,3.03193,0,0,1,1.39237-2.25051c9.0079-4.71221,13.04492-13.927,19.31774-21.11021,4.853-5.55739,11.5063-5.693,17.89349-4.6469,11.9101,1.95054,21.19408,5.40281,27.06017,19.10772a62.792,62.792,0,0,1,5.14728,29.896c-2.09482,24.41368,11.2277,46.08075,8.95647,70.67155-2.247,24.3279-1.12441,49.24567,1.21128,73.647,2.83644,29.63232.604,59.4705,5.32881,88.99783,2.69712,16.85559-3.986,33.23426-5.4509,49.9572-.549,6.26756-7.6729,6.68757-12.623,6.17689-10.76361-1.11018-21.4435.13029-32.13567.29738-7.29169.11383-11.60558-3.04742-14.56361-8.85536-7.6965-15.11165-13.25136-30.67876-12.68468-48.15949.61733-19.04395.14024-38.12352.14024-57.18753Q929.63184,862.89626,929.0802,862.89645Z" transform="translate(-329.60528 -241.82588)"/><path class="cls-1" d="M782.2797,1338.97448c12.60062,0,25.21017.27726,37.79783-.12635,5.60838-.18011,8.57588,2.41963,12.167,6.27292,18.13007,19.4541,25.22417,41.602,23.391,68.54462-1.712,25.15964-4.89375,50.1155-7.1634,75.1808-.72106,7.96321-6.14943,14.6119-9.19907,21.95939-1.1732,2.82685-3.95246,2.33-6.42933,2.27063-34.41248-.82706-68.82384-1.73346-103.2406-2.317-5.11931-.08667-6.4386-2.04667-5.93009-6.56934.20472-1.82058-.18367-3.71037.04172-5.52588,2.05792-16.578-1.78306-31.54256-12.05123-44.78968-4.45274-5.74454-4.67957-11.716-3.25115-18.93405,6.07971-30.72216,12.49983-61.26961,24.545-90.3824,2.21232-5.34713,4.638-7.46425,10.61628-7.20975,12.88131.54844,25.80214.16861,38.70678.16861Z" transform="translate(-329.60528 -241.82588)"/><path class="cls-1" d="M1040.99189,1413.44014c-.6562-13.829-1.10913-27.67225-2.07223-41.47987-.36689-5.26079,1.53857-6.49157,6.50906-7.33565,34.72444-5.89714,68.47474,2.10292,102.50911,6.40739,4.89088.61854,6.22611,3.92744,8.51171,7.16523,20.561,29.12642,24.51928,63.72553,32.24965,97.08507.4851,2.09357,1.05741,4.17158,1.43625,6.28419.91386,5.09613,2.03815,8.58953-4.08818,13.3517-7.273,5.65381-11.20358,15.81327-16.0189,24.33856a14.23084,14.23084,0,0,1-9.72508,7.40835c-25.89108,6.53339-51.76768,13.131-77.56558,20.02045-4.89087,1.30619-8.327.70691-10.99168-3.616a8.96421,8.96421,0,0,0-1.78534-2.10811c-18.6394-15.827-25.72522-36.22144-25.0449-60.28408.32019-11.32351-1.40391-22.70112-2.12406-34.05912-.70078-11.0529-1.30244-22.11211-1.94766-33.16861Z" transform="translate(-329.60528 -241.82588)"/><path class="cls-1" d="M1398.8327,1505.59218c-26.8819-1.99315-47.92.9481-68.4717-4.30649-7.19377-1.8393-14.83094-14.85829-12.02255-21.63592,13.4996-32.57767,16.37289-67.18817,19.52147-101.68753.8592-9.4131,4.14863-17.81722,6.87713-26.55553,1.08311-3.46828,2.96288-4.79362,6.654-4.67009,15.3503.51384,30.90974-.60074,45.99749,1.596,10.9416,1.59314,21.28124,7.40193,31.84907,11.43645,3.353,1.28,2.99544,4.43013,2.69627,7.09073-3.11613,27.723,7.10137,51.47049,20.96065,74.562,8.84491,14.73667,8.8937,31.599,7.07591,48.2096-.69661,6.36669-14.50868,16.00182-21.15639,15.97815C1423.45554,1505.55487,1408.09679,1505.59218,1398.8327,1505.59218Z" transform="translate(-329.60528 -241.82588)"/><path class="cls-1" d="M961.76425,496.16449c7.86209.95313,16.78294-1.74481,25.3653,4.80213,10.21361,7.79136,15.359,16.27588,13.47611,29.27269-1.95842,13.51809-1.04023,27.34935-7.44117,40.24892-8.07117,16.26551-27.48751,25.46065-44.44827,18.99785-7.53283-2.87038-12.07479-10.234-17.51229-15.94711-17.06037-17.92506-19.71461-44.8908-5.62207-64.78324,4.98851-7.04157,12.579-12.47179,22.29673-12.583C952.175,496.12364,956.47239,496.16449,961.76425,496.16449Z" transform="translate(-329.60528 -241.82588)"/></svg>