<svg id="Icons" xmlns="http://www.w3.org/2000/svg" viewBox="0 0 1439.96698 1082.08471"><defs><style>.cls-1{fill:#fff;}</style></defs><g id="Burger"><path class="cls-1" d="M238.20714,492.01469c17.53337-55.95728,57.017-73.96062,113.607-73.80123,409.53118,1.15324,819.06715.53227,1228.60157.71473,59.64628.02657,97.75084,29.75037,97.7584,89.94391.00756,60.18924-38.11985,89.96559-97.73,89.99505-409.53425.20242-819.07031-.42545-1228.60152.72245-56.58107.15857-96.06514-17.87584-113.63541-73.79842Z" transform="translate(-238.20714 -418.21241)"/><path class="cls-1" d="M238.20714,942.36791c17.55046-55.93948,57.01807-73.96269,113.618-73.80292,409.52836,1.15644,819.06154.53364,1228.593.7169,59.64972.02672,97.74354,29.77678,97.75385,89.95426.01048,60.18842-38.12938,89.95554-97.73787,89.98483-409.53142.20134-819.06468-.42588-1228.59308.72189-56.58066.15865-96.06391-17.87668-113.634-73.79846Z" transform="translate(-238.20714 -418.21241)"/><path class="cls-1" d="M238.20714,1392.72114c17.55046-55.93948,57.0181-73.96278,113.618-73.80293,409.52837,1.15645,819.06155.53351,1228.59305.71682,59.64964.02672,97.74354,29.77674,97.75385,89.95434.01031,60.18843-38.12938,89.95554-97.73787,89.98483-409.53142.20135-819.06468-.42588-1228.593.72189-56.58067.15857-96.06394-17.87667-113.634-73.79846Z" transform="translate(-238.20714 -418.21241)"/></g></svg>