<?xml version="1.0" encoding="utf-8"?>
<!-- Generator: Adobe Illustrator 25.2.3, SVG Export Plug-In . SVG Version: 6.00 Build 0)  -->
<svg version="1.1" xmlns="http://www.w3.org/2000/svg" xmlns:xlink="http://www.w3.org/1999/xlink" x="0px" y="0px"
	 viewBox="0 0 1920 1920" style="enable-background:new 0 0 1920 1920;" xml:space="preserve">
<style type="text/css">
	.st0{display:none;}
	.st1{display:inline;fill:#DDDDDD;}
	.st2{display:inline;fill:#283B64;}
	.st3{display:inline;fill:#1273EA;}
	.st4{display:inline;fill:#1373EA;}
	.st5{fill:#283B64;}
	.st6{fill:#1273EA;}
</style>
<g id="Capa_3" class="st0">
	<rect class="st1" width="1920" height="1920"/>
</g>
<g id="Home">
	<g id="Hours" class="st0">
		<path class="st2" d="M1492.33,0.32c56.77,20.88,94.05,58.79,97,121.23c3.55,75.06-47.4,129.43-125.88,136.96
			c-11.59,1.11-12.58,5.07-12.53,14.48c0.32,57.45-0.06,114.91,0.21,172.36c0.59,125.47-58.7,219.72-152.38,297.17
			c-37.62,31.11-73.37,64.6-108.62,98.42c-27.47,26.35-61.3,46.91-79.02,82.53c-15.36,30.88-9.17,73.15,16.33,96.82
			c70.47,65.41,142.51,129.14,212.55,195c62.39,58.66,99.74,130.23,107.75,216.95c6.1,66,2.62,131.94,2.59,197.87
			c-0.01,21.93,3.54,32.68,27.18,34.85c74.06,6.79,107.23,67.93,111.87,114.82c5.07,51.28-21.59,117.03-95.27,137.02
			c-0.8,0.22-1.2,1.9-1.79,2.9c-354.89,0-709.78,0-1064.66,0c-41.1-15.91-74.85-39.73-89.91-83.63
			c-29.02-84.63,25.61-165.7,118.52-174.59c11.2-1.07,12.88-4.4,12.82-14.19c-0.38-58.69-1.24-117.4,0.04-176.06
			c2.26-104.18,38.9-192.37,119.27-262.27c68.88-59.92,134.97-123.11,201.34-185.84c37.21-35.17,37.49-91.11,0.24-125.94
			c-71.25-66.63-145.1-130.51-215.36-198.14c-59.01-56.81-94.35-126.62-102.31-209.74c-6.38-66.59-3.33-133.18-2.41-199.68
			c0.35-24.92-7.82-31.91-29.62-34.61c-53.55-6.64-87.03-38.08-103.38-88.51c-16.31-50.3-2.85-93.92,32.14-131.59
			c15.89-17.11,37.81-25.19,58.62-34.58C782.56,0.32,1137.44,0.32,1492.33,0.32z M959.99,97.72c-165.56,0-331.13,0.21-496.69-0.29
			c-19.28-0.06-31.13,7.51-35.02,25.48c-3.68,17.01,5.41,28.33,20.87,34.48c22.21,8.83,45.47,3.11,68.21,3.86
			c32.34,1.06,49,16.64,49.01,48.56c0.02,80.59-1.43,161.22,0.47,241.77c1.49,63.01,20.28,121.06,67.45,165.67
			c71.79,67.88,144.36,134.95,217.44,201.43c68.59,62.39,82.85,161.73,33.72,240.91c-25.08,40.42-63.56,67.55-97.01,99.59
			c-34.9,33.42-70.86,65.83-107.68,97.12c-66.89,56.84-114.42,123.35-114.38,215.44c0.02,57.48,0.56,114.96-0.38,172.43
			c-0.23,14.4,3.92,17.25,17.6,17.18c113.08-0.58,226.16-0.33,339.24-0.33c102.46,0,204.92-0.13,307.38,0.07
			c36,0.07,56.04,18.78,55.93,51.17c-0.1,30.11-18.77,46.23-53.55,46.23c-253.65,0-507.31-0.03-760.96,0.05
			c-22.12,0.01-42.76,6.18-43.25,31.93c-0.48,25.33,17.02,32.25,41.29,32.21c326.75-0.56,653.5-0.56,980.25,0
			c24.11,0.04,41.93-6.27,41.72-31.86c-0.21-25.94-21.04-31.71-42.88-32.25c-20.6-0.51-42.14,3.51-61.62-1.23
			c-32.8-7.98-35.47-33.61-34.39-64.48c2.66-76.13,2.68-152.47,0.33-228.61c-2.05-66.55-26.08-125.04-76.23-171.29
			c-73.24-67.55-146.9-134.69-218.84-203.62c-59.76-57.27-69.85-154.69-26.89-225.14c26.81-43.96,68.79-72.96,104.82-107.72
			c34.83-33.61,71.23-65.66,107.94-97.24c62.49-53.75,107.48-116.94,109.46-202.66c1.42-61.19-0.07-122.45,0.57-183.67
			c0.13-11.99-3.74-14.43-14.81-14.18c-31.85,0.71-63.72,0.25-95.58,0.25c-184.31,0-368.61,0.05-552.92-0.05
			c-36.41-0.02-56.77-18.39-56.76-50.41c0.01-30.96,18.69-47.01,54.7-47.01c253.65,0,507.31,0.08,760.96-0.15
			c21.93-0.02,42.1-6.87,42.23-32.95c0.12-23.76-15.86-31.11-38.82-31.03C1288.62,97.97,1124.3,97.7,959.99,97.72z"/>
		<path class="st3" d="M961.41,1293.64c151.46-1.81,275.52,112.32,312.89,250.71c7.84,29.05-6.52,57.58-29.75,64.04
			c-31.49,8.76-55.13-4.79-65.51-38.24c-28.82-92.86-86.34-156.56-184.21-175.93c-68.88-13.63-128.55,10.9-180.42,54.85
			c-36.47,30.91-61.27,69.9-72.78,117.21c-8.77,36.02-31.55,50.04-64.05,42.22c-26.11-6.28-39.3-33.95-31.79-66.69
			c27.96-121.87,145.9-228.4,269.51-244.95C930.77,1294.79,946,1294.08,961.41,1293.64z"/>
		<path class="st3" d="M960.05,667.6c-44.36,0-88.72,0-133.08,0c-34.44,0-53.49-15.99-54.4-45.65
			c-0.93-30.06,17.53-51.01,50.51-51.41c91.21-1.11,182.44-1.06,273.65-0.03c32.61,0.37,51.63,21.66,50.72,51.35
			c-0.91,29.79-19.84,45.74-54.31,45.74C1048.77,667.6,1004.41,667.6,960.05,667.6z"/>
		<path class="st4" d="M1008.74,1183.57c-0.25,27.23-21.63,49.41-48.22,50.01c-26.53,0.6-49.42-23.05-49.25-50.88
			c0.17-28.23,20.89-46.77,51.98-46.51C988.79,1136.4,1008.98,1157.42,1008.74,1183.57z"/>
	</g>
	<g id="Repairs" class="st0">
		<path class="st3" d="M1267.66,943.33c29.55,25.47,55.42,54.72,84.7,80.64c44.13,39.06,84.96,81.82,127.64,122.54
			c78.5,74.88,157.24,149.5,236.03,224.08c43.73,41.39,88.64,81.57,131.44,123.9c102.44,101.32,95.26,273.3-14.52,367.11
			c-99.93,85.39-267.48,75.23-354.1-30.25c-48.3-58.82-105.63-110.18-158.37-165.41c-75.66-79.24-151.21-158.59-225.99-238.65
			c-21.06-22.55-39.32-47.72-66.02-64.39c0.13-7.49-5.6-11.38-9.75-16.42c-24.33-29.51-51.77-56.06-78.67-83.12
			c-9.45-10.09-18.79-20.28-28.36-30.26c-35.74-37.27-71.97-74.1-107.25-111.8c-46.05-49.22-90.06-100.37-139.88-145.98
			c-26.02-36.12-57.46-67.09-91.12-95.96c-1.53-10.35-10.83-14.65-16.97-21.25c-22.03-23.68-44.52-46.93-66.1-69.58
			c-123.73,25.17-235.81,2.75-335.67-73.15C75.38,655.06,27.39,573.89,6.97,477.5c-9.39-44.32-8.62-90.32-1.55-135.68
			c6-38.47,56.66-61.6,94.57-39.68c59.78,34.55,119.71,68.83,179.62,103.15c15.06,8.63,30.3,16.95,45.89,25.66
			c22.99-39.67,44.82-77.34,66.98-115.57c-72.92-42.04-145.5-83.95-218.15-125.76c-47.23-27.18-49.55-86.2-5.48-117.44
			C253.22,12.38,348.27-9.11,448.66,2.89c112.43,13.44,204.51,67.08,272.32,160.04c45.83,62.83,70.3,132.03,76.45,209.83
			c3.17,40.07-3.98,77.85-8.19,119.19C851.38,550,915.2,609.59,979.01,669.18c28.93,33.66,61.76,63.22,96.12,91.16
			c29.52,34.28,65.6,61.64,98.11,92.77C1204.71,883.18,1236.19,913.25,1267.66,943.33z M348.53,136.42
			c38.95,22.62,73.32,43.13,108.21,62.7c61.55,34.52,86.11,110.97,53.94,173.91c-18.66,36.51-39.04,72.18-59.79,107.56
			c-14.2,24.21-29.16,48.01-54.68,63.02c-55.64,32.73-108.16,22.94-159.74-9.62c-14.83-9.36-30.47-17.41-45.63-26.26
			c-14.56-8.5-28.98-17.24-46.36-27.61c17.74,53.18,45.56,95.58,86.18,126.57c74.66,56.97,157.73,76.8,249.84,46.49
			c33-10.86,62.05-4.66,86.9,23.3c41.37,46.55,84.41,91.66,127.9,136.24c48.62,49.85,96.09,100.75,143.68,151.56
			c65.31,69.72,133.52,136.76,197.83,207.37c28.87,31.7,58.68,62.67,88.21,93.57c62.28,65.17,122.19,132.53,184.95,197.23
			c92.92,95.8,186.39,191.08,276.51,289.56c30.1,32.89,69.21,41.1,109.83,32.73c46.41-9.57,78.22-40.98,88.16-87.36
			c8.87-41.37,0.24-80.72-32.92-111.7c-68.76-64.25-137.17-128.88-205.59-193.5c-74.25-70.12-148.36-140.37-222.5-210.6
			c-77.51-73.43-154.94-146.93-232.46-220.34C1017.35,891.49,943.45,822,869.99,752.05C803.21,688.46,737,624.27,670.26,560.64
			c-20.68-19.71-26.42-42.53-18.46-69.62c15.09-51.33,21.42-103.46,7.64-155.93C623.41,197.84,495.07,114.25,348.53,136.42z"/>
		<path class="st2" d="M1267.66,943.33c-31.48-30.07-62.95-60.14-94.41-90.22c29.79-36.54,58.75-73.95,89.69-109.24
			c42.43-48.38,90.28-92.06,136.46-137.09c12.25-11.94,26.93-19,45.85-18.5c47.82,1.27,95.7,0.42,143.15,0.42
			c61.62-110.95,122.82-221.14,181.28-326.4c-38.88-38.97-74.79-74.98-111.56-111.85C1550.86,210,1441.23,270.87,1331.31,331.9
			c0,27.51,0.42,54.77-0.08,82.01c-1.87,101.55,15.23,73.07-62.23,151.23c-64.56,65.13-129.24,130.14-193.87,195.2
			c-34.36-27.94-67.18-57.5-96.12-91.16c64.08-64.63,128.13-129.3,192.27-193.88c9.34-9.41,19.11-18.4,28.29-27.2
			c0-43.09,1.54-85.04-0.41-126.83c-2.15-45.89,13.52-77.22,55.97-99.88c129.68-69.2,257.6-141.67,386.48-212.39
			c28.03-15.38,59.5-10.4,81.69,11.65c58.48,58.11,116.34,116.85,175.08,174.7c21.82,21.49,26.47,59.18,12.07,85.02
			c-59.71,107.1-119.17,214.33-178.74,321.51c-13.55,24.39-29.07,47.89-40.32,73.3c-15.73,35.51-44.83,44.54-78.97,45.06
			c-45.86,0.7-91.74,0.17-138.49,0.17C1400.53,790.02,1331.16,863.95,1267.66,943.33z"/>
		<path class="st2" d="M573.45,879.33c33.65,28.87,65.1,59.84,91.12,95.96c-41.27,33.11-79.44,69.71-118.78,105.01
			c-68.35,61.34-137.52,121.76-206.16,182.77c-40.49,35.98-79.47,73.75-121.18,108.24c-59.57,49.27-87.98,113.05-88.01,188.25
			c-0.02,51.6,19.7,98.32,50.87,140.5c48.84,66.08,153.59,102.96,232.94,84.33c67.69-15.89,115.29-57.73,158.84-107.9
			c67.54-77.8,135.8-155,204.21-232.04c53.89-60.69,108.47-120.77,162.75-181.12c26.9,27.06,54.34,53.61,78.67,83.12
			c4.15,5.04,9.88,8.93,9.75,16.42c-49.78,55.68-99.75,111.19-149.28,167.09c-58.57,66.09-115.85,133.35-175.4,198.53
			c-48.19,52.76-91.46,111.07-156.85,145.74c-46.73,24.78-95.63,39.21-148.59,44.52c-90.66,9.09-172.41-13.75-245.12-65.69
			C64,1789.34,13.05,1701.8,1.59,1591.51c-10-96.23,15.24-181.46,71.53-259.5c23.6-32.73,54.32-57.37,83.13-84.27
			c28.44-26.56,58.71-51.17,87.87-76.97c71.19-62.99,142.51-125.85,213.19-189.41C495.63,946.89,532.85,911.2,573.45,879.33z"/>
		<path class="st2" d="M321.94,1662.54c-30.77,2.14-49.95-11.79-61.26-38.06c-9.75-22.64-3.79-55.04,14.04-72.97
			c42.21-42.47,84.5-84.87,127.04-127.01c25.32-25.08,69.56-24.98,94.17-0.36c24.54,24.56,24.58,68.92-0.4,94.1
			c-42.17,42.51-84.71,84.66-126.93,127.11C355.19,1658.83,339.45,1664.94,321.94,1662.54z"/>
	</g>
	<g id="Experience" class="st0">
		<path class="st2" d="M959.9,8.74c263.91,0,527.82-0.04,791.74,0.1c17.27,0.01,34.45-0.55,51.69,4.21
			c42.31,11.68,73.9,36.35,96.08,73.83c13.69,23.13,21.5,47.79,20.5,74.91c-0.18,4.88,0.04,9.77,0.04,14.66
			c0,379.76,0,759.51-0.01,1139.27c0,17.35-0.09,34.59-4.76,51.64c-15.13,55.26-62.08,100.64-121.47,112.05
			c-40.67,7.82-82.03,4.74-122.89,3c-28.87-1.23-51.72-18.43-59.75-47.16c-7.23-25.89-2.79-51.1,19.29-70.29
			c11.4-9.91,24.18-15.75,39.56-15.68c27.93,0.13,55.85-0.18,83.78,0.02c7.07,0.05,13.96-0.23,20.19-3.69
			c7.01-3.89,12.15-9.25,11.91-18.11c-0.13-4.88,0.07-9.77,0.07-14.66c0-378.36-0.13-756.72,0.25-1135.08
			c0.03-30.11-5.47-35.2-34.21-35.18c-527.82,0.31-1055.65,0.32-1583.47-0.01c-29.27-0.02-34.62,5.21-34.59,34.79
			c0.37,378.36,0.24,756.72,0.24,1135.08c0,3.49-0.09,6.98,0.02,10.47c0.52,16.81,8.4,25.02,25.45,26.23
			c4.86,0.35,9.77,0.05,14.66,0.05c199.68,0,399.36,0,599.04,0.01c15.27,0,29.96,0.21,43.82,9.57
			c25.68,17.34,34.34,41.45,29.41,70.32c-4.48,26.18-22.01,42.32-46.9,50.53c-7.9,2.61-16.01,3.74-24.46,3.73
			c-205.26-0.13-410.53,0.08-615.79-0.25c-42.34-0.07-80.63-14.04-111.08-43.57c-29.07-28.2-47.53-62.66-48.03-104.65
			c-0.08-6.98-0.21-13.96-0.21-20.94C0,934.89-0.03,555.83,0.1,176.77c0.01-17.27-0.65-34.47,4.26-51.68
			c12.47-43.67,38.38-76.19,77.65-98.34c24.77-13.97,51.51-18.34,79.87-18.24c139.63,0.5,279.27,0.23,418.91,0.23
			C707.16,8.74,833.53,8.74,959.9,8.74z"/>
		<path class="st3" d="M1650.89,1150.67c3.86,22.75,0.02,47.81-4.64,71.81c-9.8,50.42-26.5,98.92-54.32,142.86
			c-6.21,9.8-11.78,19.84-19.47,28.8c-7.09,8.26-9.61,18.35-9.56,30.21c0.6,124.9,0.66,249.8,0.19,374.7
			c-0.14,36.63-15.6,65.7-44.85,89.1c-25.02,20.01-52.74,25.55-82.6,22.44c-15.79-1.64-31.2-7.96-46.5-12.99
			c-50.4-16.57-100.8-33.18-150.89-50.65c-8-2.79-13.48-1.98-21.2,0.64c-57.24,19.41-114.86,37.68-172.26,56.63
			c-47.42,15.65-88.84,6.29-123.35-29.81c-19.63-20.53-28.32-46.19-28.38-74.32c-0.24-124.2-0.36-248.41,0.25-372.6
			c0.07-13.94-3.22-25.27-11.24-36.03c-14.24-19.09-25.86-39.66-36.55-61.01c-14.61-29.18-23.76-60.09-31.9-91.28
			c-11.8-45.27-12.12-92.07-7.68-137.82c5.22-53.78,21.43-105.5,47.21-153.69c24.93-46.61,57.57-87.26,97.27-121.7
			c31.9-27.67,67.52-50.41,106.72-66.85c33-13.84,66.61-25.11,102.51-29.75c24.36-3.15,42.35-6.42,73.09-7.14
			c30.74-0.72,54.07,3.24,80.9,9.92c25.56,6.37,50.84,12.67,75.21,22.73c37.27,15.38,71.61,35.4,103.31,60.45
			c16.41,12.96,31.65,26.99,45.68,42.24c49.06,53.34,84.05,114.31,101.18,185.38C1647.42,1077.74,1653.19,1112.53,1650.89,1150.67z
			 M1518.17,1130.18c1.93-34.45-13.07-82.57-38.71-127.78c-28.81-50.78-70.46-88.48-121.8-115.28
			c-40.91-21.35-85.81-31.68-131.21-30.74c-78.09,1.61-147.93,28.68-203.26,85.24c-54.44,55.65-84.1,122.4-84.55,201.73
			c-0.47,82.08,27.66,151.72,85.27,209.6c55.53,55.79,123.6,83.58,201.67,84.42c78.2,0.85,146.56-26.28,203.12-80.86
			C1487.53,1299.75,1517.03,1230.22,1518.17,1130.18z M1429.2,1646.52c0-38.39,0.04-76.78-0.03-115.17
			c-0.02-10.08-0.43-10.54-9.88-5.34c-26.18,14.4-54.05,24.39-82.91,31.47c-31.03,7.61-62.35,14.31-94.52,14.15
			c-19.91-0.1-39.68,0.22-59.75-3.05c-14.62-2.38-29.9-3.45-44.45-6.52c-35.68-7.53-69.71-20.38-102.51-36.38
			c-7.86-3.83-8.1-3.69-8.11,5.37c-0.05,71.19-0.12,142.39,0.09,213.58c0.03,8.9-4.31,21.4,1.96,25.83
			c6.68,4.72,17.25-3.37,25.75-6.34c42.49-14.87,85.61-27.81,127.87-43.44c25.23-9.33,52.22-10.86,78.65-2.35
			c52.44,16.88,104.81,33.97,157.21,50.95c10.38,3.36,10.58,3.33,10.6-7.59C1429.26,1723.3,1429.2,1684.91,1429.2,1646.52z"/>
		<path class="st2" d="M601.1,499.43c-87.91,0-175.82-0.13-263.73,0.08c-28.55,0.07-49.75-12.67-62.4-37.33
			c-21.95-42.81,7.09-91.95,54.28-96.62c4.15-0.41,8.37-0.16,12.55-0.16c173.73-0.01,347.46,0.05,521.19-0.1
			c13.37-0.01,25.58,2.25,38.14,7.65c24.56,10.56,40.27,46.84,36.32,66.74c-6.93,34.93-30.15,57.27-62.16,59.6
			c-5.55,0.4-11.16,0.15-16.74,0.15C772.74,499.43,686.92,499.43,601.1,499.43z"/>
		<path class="st2" d="M511.72,856.01c-60,0-120,0.1-180.01-0.04c-27.97-0.07-47.74-14.21-58.51-39
			c-16.93-38.98,5.62-83.29,44.32-91.88c8.23-1.83,16.21-3.1,24.53-3.1c114.42,0.02,228.85-0.06,343.27,0.07
			c26.45,0.03,48.65,8.68,63.2,32.49c12.94,21.18,14.8,42.68,3.08,64.81c-11.82,22.31-29.42,36.46-55.69,36.55
			c-61.4,0.2-122.79,0.07-184.19,0.07C511.72,855.98,511.72,855.99,511.72,856.01z"/>
	</g>
	<g id="Clients">
		<path class="st5" d="M961.35,1919.93c-332.81,4.86-591.82-261.93-591.44-598.58c0.18-158.12,56.06-298.92,168.47-412.04
			c128.9-129.7,287.5-186.64,469.66-173.52c148.97,10.73,275.6,73.04,378.98,179.66c129.95,134.03,177.81,302.14,161.27,481.22
			C1523.42,1666,1300.88,1922.42,961.35,1919.93z M1439.28,1317.88c1.26-24.38-1.4-57.57-8.89-90.36
			c-24.73-108.27-75.5-200.55-162.21-272.26c-120.05-99.28-256.52-132.47-408.1-102.75c-116.27,22.8-211.54,83.93-282.15,177.6
			c-81.09,107.57-112.64,230.51-93.97,365.59c9.9,71.62,35.66,136.48,73.75,197.27c9.07,14.47,16.16,14.68,25.18,0.9
			c12.24-18.69,28.88-32.76,46.24-46.67c35.97-28.81,78.67-42.02,121.45-54.9c16.14-4.86,16.87-9.85,7.58-22.77
			c-38.97-54.2-55.78-115.67-57.96-181.86c-1.32-40.1,6.1-78.68,17.4-116.81c18.12-61.13,51.99-112.69,103.43-149.19
			c84.78-60.17,174.87-62.33,263.79-8.95c43.86,26.33,77.87,65.03,98.65,111.99c28.93,65.37,44.36,133.66,31.12,206.11
			c-7.42,40.63-12.93,81.54-34.82,117.87c-7.68,12.75-26.03,27.24-20.86,37.25c4.95,9.58,27.13,10.31,41.79,14.77
			c54.57,16.62,102.62,44.07,138.08,89.39c10.65,13.61,13.07,15.8,23.28,0.25C1414.63,1510.26,1441.21,1422.94,1439.28,1317.88z
			 M967.03,1811.82c57.88,5.4,119.91-11.37,179.55-35.68c43.6-17.77,84.41-42.1,119.41-74.58c2.83-2.63,10.48-4.05,6.19-11.03
			c-15.21-24.71-31.62-49.47-56.93-63.96c-43.99-25.18-93.27-38.81-141.74-51.07c-62.9-15.9-77.93-97.97-32.04-133.92
			c24.01-18.81,39.67-45.35,52.19-73.54c15.67-35.31,17.56-72.29,17.27-110.07c-0.34-43.88-16.18-80.82-45.78-112.45
			c-6.35-6.79-13.96-12.75-18.89-20.44c-13.79-21.52-77.28-47.98-108.52-37.66c-35.32,11.67-62.65,32.7-86.73,60.54
			c-18.49,21.38-32.79,44.82-37.91,71.77c-16.33,86.03,0.3,163.97,67.23,224.6c39.49,35.78,30.31,111.66-30.36,129.68
			c-18.18,5.4-36.14,11.53-54.15,17.47c-47.16,15.55-95.69,27.07-127.5,71.92c-18.33,25.84-22.25,37.22-2.32,51.25
			C753.91,1776.53,849.47,1815.66,967.03,1811.82z"/>
		<path class="st6" d="M769.8,169.12c45.6,14,65.69-10.49,77.3-49.99c5.91-20.1,14.55-39.4,22.08-59.01
			c15.46-40.24,48.63-58.63,100.4-60.11c27.18-0.78,67.58,26.99,80.5,60.91c12.49,32.78,26.57,64.95,38.68,97.86
			c3.76,10.21,10.11,10.37,18.18,10.36c26.62-0.05,53.24-0.15,79.86,0.01c41.13,0.25,78.37,23.77,91.18,61.23
			c13.18,38.54,7.4,74.34-23.4,104.01c-20.73,19.97-40.65,40.77-61.18,60.95c-7.07,6.95-9.24,12.36-6.06,23.78
			c13,46.61,23.41,93.95,34.59,141.06c10.65,44.88-34.85,102.33-80.99,106.65c-36.92,3.46-66.38-11.53-95.52-29.66
			c-21.84-13.59-43.12-28.11-64.51-42.41c-13.96-9.33-27.06-11.2-42.05-0.76c-30.35,21.14-61.44,41.13-93.68,59.49
			c-50.76,28.9-132.09,13.57-145.76-65.19c-6.37-36.69,11.04-67.29,14.97-101.05c1.68-14.44,6.43-28.87,11.94-42.43
			c11.64-28.66,5.75-50.41-19.64-69.03c-14.91-10.93-25.63-27.48-40.21-39.01c-35.41-28-40.96-91.27-14.93-126.34
			c19.81-26.69,45.83-38.5,77.24-41.13C742.38,168.18,756.13,169.12,769.8,169.12z M1106.26,541.78
			c-9.35-39.01-17.23-73.91-26.14-108.54c-10.45-40.62-3.83-75.78,28.68-104.74c16.92-15.07,32.34-31.82,51.95-51.31
			c-30.01,0-54.96,1.21-79.74-0.31c-29.15-1.79-54.6-11.32-71.88-38.01c-19.76-30.52-29.08-65.54-45.18-97.56
			c-1.18-2.35-0.36-5.97-4.34-6.08c-4.05-0.11-3.49,3.4-4.51,5.91c-8.79,21.49-17.44,43.05-26.74,64.32
			c-19.48,44.59-42.03,73.28-105.33,71.81c-19.85-0.46-39.72-0.07-64.88-0.07c21.69,21.52,39.35,40.03,58.06,57.4
			c27.88,25.89,31.56,58.61,24.77,92.63c-7.5,37.58-18.53,74.46-28.87,114.99c23.42-13.49,44.81-24.17,64.46-37.44
			c50.31-33.98,100.38-44.85,154.27-6.97C1053.9,514.02,1079.64,526.43,1106.26,541.78z"/>
		<path class="st6" d="M479.88,721.76c4.21,67.59-61.97,107.48-123.33,78.61c-26.11-12.29-51.11-27.16-75.79-42.19
			c-9.59-5.84-16.13-5.51-25.29,0.24c-20.44,12.82-41.74,24.27-62.62,36.42c-27.33,15.9-56.63,21.16-85.82,8.74
			c-42.38-18.04-59.63-58.38-48.24-104.23c7.34-29.57,12.69-59.69,21.28-88.87c3.02-10.25-0.6-14.4-6.31-20.04
			c-13.83-13.67-27.18-27.82-41.31-41.16c-26-24.55-27.35-54.87-20.46-86.76c7.37-34.08,44.43-58.94,81.29-59.89
			c12.23-0.32,24.71-1.56,36.66,0.27c23.13,3.54,31.72-8.57,39.65-27.98c10.83-26.51,17.85-55.24,40.28-76.28
			c40.12-37.62,107.41-27.89,133.16,21.15c11.79,22.46,21.44,46.14,30.78,69.78c4.22,10.69,10.47,12.89,21.05,13.36
			c21.97,0.96,43.76-2.12,66.07,2.83c34.29,7.6,57.34,27.17,64.89,59.68c7.45,32.09,4.07,65.97-25.71,86.98
			c-43.53,30.7-50.65,67.46-30.57,115.03C476.7,684.38,482.83,703.77,479.88,721.76z M142.96,511.03
			c13.26,12.16,22.33,19.98,30.82,28.38c15.66,15.51,19.31,36.26,18.36,56.28c-1.03,21.59-6.98,43.02-11.73,64.31
			c-1.08,4.85-5.03,10.25-0.69,13.62c4.4,3.42,8.67-3.01,13.34-4.24c3.3-0.87,6.24-3.38,9.13-5.46
			c41.3-29.78,83.24-32.34,126.74-4.27c8.64,5.58,20.19,18.57,26.71,13.35c7.93-6.35-1.43-20.2-4.16-30.66
			c-12.31-47.14-12.06-90.98,31.83-123.69c1.88-1.4,5-3.33,2.95-7.12c-14.53-3.26-29.55,1.29-44.35-2.94
			c-31.45-8.99-49.2-30.91-60.97-59.86c-3.32-8.18-4.35-22.96-11.95-22.74c-10.08,0.29-9.58,15.15-13.45,23.7
			c-9.51,21.02-21.16,39.79-42.02,51.64C193.52,512.69,171.35,510.21,142.96,511.03z"/>
		<path class="st6" d="M1504.68,402.57c26.22,8.22,40.72-6.74,50.69-35.54c8.39-24.23,17.29-48.78,36.63-68.68
			c30.69-31.58,106.09-32.37,132.25,19.69c10.13,20.16,19.13,41,27.12,62.11c6.34,16.75,15.47,24.04,34.58,23.09
			c18.88-0.95,37.9-1.97,57.4,2.45c34.22,7.75,57.33,27.23,64.85,59.78c7.42,32.11,4.04,65.98-25.75,86.97
			c-43.58,30.71-50.17,67.32-30.49,115.03c10.42,25.25,16.23,53.83,8.28,81.76c-14.95,52.52-69.74,75.84-121.36,51.17
			c-26.05-12.45-51.1-27.19-75.79-42.22c-9.6-5.84-16.17-5.43-25.3,0.3c-19.83,12.45-40.68,23.25-60.74,35.34
			c-26.4,15.9-54.83,21.93-83.61,11.06c-45.25-17.09-64.12-58-52.3-105.56c7.35-29.57,12.71-59.69,21.29-88.88
			c3.02-10.26-0.65-14.4-6.35-20.03c-13.83-13.67-27.18-27.82-41.31-41.16c-26.01-24.56-27.41-54.92-20.34-86.75
			c7.72-34.76,43.68-57.68,79.1-59.83C1482.14,402.12,1490.81,402.57,1504.68,402.57z M1530.05,510.5
			c12.66,19.91,32.17,29.61,39.15,50.83c10.83,32.91,1.22,63.57-5.05,94.95c-1.17,5.87-8.64,12.89-1.72,17.25
			c4.87,3.06,11.25-3.71,16.76-6.69c23.52-12.75,45.34-28.48,74.81-27c28.06,1.41,49.16,16.37,71.72,29.45
			c4.1,2.38,10.56,5.9,13.26,4.32c4.59-2.69,1.44-8.33-0.18-13.27c-3.73-11.33-6.94-22.98-8.8-34.75c-5.79-36.54-6-71.7,26.65-98.14
			c4.97-4.03,11.98-7.74,12.44-15.9c-15.2-3.22-30.16,1.06-45.1-3.09c-36.36-10.1-52.94-37.58-64.66-70
			c-1.85-5.11-3.18-12.82-8.36-13.1c-5.85-0.31-6.72,7.73-8.77,12.61c-8.75,20.78-16.95,40.98-36.08,56.01
			C1583.62,511.64,1558.68,511.09,1530.05,510.5z"/>
	</g>
</g>
</svg>
