<?xml version="1.0" encoding="utf-8"?>
<!-- Generator: Adobe Illustrator 25.2.3, SVG Export Plug-In . SVG Version: 6.00 Build 0)  -->
<svg version="1.1" xmlns="http://www.w3.org/2000/svg" xmlns:xlink="http://www.w3.org/1999/xlink" x="0px" y="0px"
	 viewBox="0 0 1920 1920" style="enable-background:new 0 0 1920 1920;" xml:space="preserve">
<style type="text/css">
	.st0{display:none;}
	.st1{display:inline;fill:#DDDDDD;}
	.st2{fill:#283B64;}
	.st3{fill:#1273EA;}
	.st4{fill:#1373EA;}
	.st5{display:inline;fill:#1273EA;}
	.st6{display:inline;fill:#283B64;}
</style>
<g id="Capa_3" class="st0">
	<rect class="st1" width="1920" height="1920"/>
</g>
<g id="Home">
	<g id="ServiceHours">
		<path class="st2" d="M1492.33,0.32c56.77,20.88,94.05,58.79,97,121.23c3.55,75.06-47.4,129.43-125.88,136.96
			c-11.59,1.11-12.58,5.07-12.53,14.48c0.32,57.45-0.06,114.91,0.21,172.36c0.59,125.47-58.7,219.72-152.38,297.17
			c-37.62,31.11-73.37,64.6-108.62,98.42c-27.47,26.35-61.3,46.91-79.02,82.53c-15.36,30.88-9.17,73.15,16.33,96.82
			c70.47,65.41,142.51,129.14,212.55,195c62.39,58.66,99.74,130.23,107.75,216.95c6.1,66,2.62,131.94,2.59,197.87
			c-0.01,21.93,3.54,32.68,27.18,34.85c74.06,6.79,107.23,67.93,111.87,114.82c5.07,51.28-21.59,117.03-95.27,137.02
			c-0.8,0.22-1.2,1.9-1.79,2.9c-354.89,0-709.78,0-1064.66,0c-41.1-15.91-74.85-39.73-89.91-83.63
			c-29.02-84.63,25.61-165.7,118.52-174.59c11.2-1.07,12.88-4.4,12.82-14.19c-0.38-58.69-1.24-117.4,0.04-176.06
			c2.26-104.18,38.9-192.37,119.27-262.27c68.88-59.92,134.97-123.11,201.34-185.84c37.21-35.17,37.49-91.11,0.24-125.94
			c-71.25-66.63-145.1-130.51-215.36-198.14c-59.01-56.81-94.35-126.62-102.31-209.74c-6.38-66.59-3.33-133.18-2.41-199.68
			c0.35-24.92-7.82-31.91-29.62-34.61c-53.55-6.64-87.03-38.08-103.38-88.51c-16.31-50.3-2.85-93.92,32.14-131.59
			c15.89-17.11,37.81-25.19,58.62-34.58C782.56,0.32,1137.44,0.32,1492.33,0.32z M959.99,97.72c-165.56,0-331.13,0.21-496.69-0.29
			c-19.28-0.06-31.13,7.51-35.02,25.48c-3.68,17.01,5.41,28.33,20.87,34.48c22.21,8.83,45.47,3.11,68.21,3.86
			c32.34,1.06,49,16.64,49.01,48.56c0.02,80.59-1.43,161.22,0.47,241.77c1.49,63.01,20.28,121.06,67.45,165.67
			c71.79,67.88,144.36,134.95,217.44,201.43c68.59,62.39,82.85,161.73,33.72,240.91c-25.08,40.42-63.56,67.55-97.01,99.59
			c-34.9,33.42-70.86,65.83-107.68,97.12c-66.89,56.84-114.42,123.35-114.38,215.44c0.02,57.48,0.56,114.96-0.38,172.43
			c-0.23,14.4,3.92,17.25,17.6,17.18c113.08-0.58,226.16-0.33,339.24-0.33c102.46,0,204.92-0.13,307.38,0.07
			c36,0.07,56.04,18.78,55.93,51.17c-0.1,30.11-18.77,46.23-53.55,46.23c-253.65,0-507.31-0.03-760.96,0.05
			c-22.12,0.01-42.76,6.18-43.25,31.93c-0.48,25.33,17.02,32.25,41.29,32.21c326.75-0.56,653.5-0.56,980.25,0
			c24.11,0.04,41.93-6.27,41.72-31.86c-0.21-25.94-21.04-31.71-42.88-32.25c-20.6-0.51-42.14,3.51-61.62-1.23
			c-32.8-7.98-35.47-33.61-34.39-64.48c2.66-76.13,2.68-152.47,0.33-228.61c-2.05-66.55-26.08-125.04-76.23-171.29
			c-73.24-67.55-146.9-134.69-218.84-203.62c-59.76-57.27-69.85-154.69-26.89-225.14c26.81-43.96,68.79-72.96,104.82-107.72
			c34.83-33.61,71.23-65.66,107.94-97.24c62.49-53.75,107.48-116.94,109.46-202.66c1.42-61.19-0.07-122.45,0.57-183.67
			c0.13-11.99-3.74-14.43-14.81-14.18c-31.85,0.71-63.72,0.25-95.58,0.25c-184.31,0-368.61,0.05-552.92-0.05
			c-36.41-0.02-56.77-18.39-56.76-50.41c0.01-30.96,18.69-47.01,54.7-47.01c253.65,0,507.31,0.08,760.96-0.15
			c21.93-0.02,42.1-6.87,42.23-32.95c0.12-23.76-15.86-31.11-38.82-31.03C1288.62,97.97,1124.3,97.7,959.99,97.72z"/>
		<path class="st3" d="M961.41,1293.64c151.46-1.81,275.52,112.32,312.89,250.71c7.84,29.05-6.52,57.58-29.75,64.04
			c-31.49,8.76-55.13-4.79-65.51-38.24c-28.82-92.86-86.34-156.56-184.21-175.93c-68.88-13.63-128.55,10.9-180.42,54.85
			c-36.47,30.91-61.27,69.9-72.78,117.21c-8.77,36.02-31.55,50.04-64.05,42.22c-26.11-6.28-39.3-33.95-31.79-66.69
			c27.96-121.87,145.9-228.4,269.51-244.95C930.77,1294.79,946,1294.08,961.41,1293.64z"/>
		<path class="st3" d="M960.05,667.6c-44.36,0-88.72,0-133.08,0c-34.44,0-53.49-15.99-54.4-45.65
			c-0.93-30.06,17.53-51.01,50.51-51.41c91.21-1.11,182.44-1.06,273.65-0.03c32.61,0.37,51.63,21.66,50.72,51.35
			c-0.91,29.79-19.84,45.74-54.31,45.74C1048.77,667.6,1004.41,667.6,960.05,667.6z"/>
		<path class="st4" d="M1008.74,1183.57c-0.25,27.23-21.63,49.41-48.22,50.01c-26.53,0.6-49.42-23.05-49.25-50.88
			c0.17-28.23,20.89-46.77,51.98-46.51C988.79,1136.4,1008.98,1157.42,1008.74,1183.57z"/>
	</g>
	<g id="Repairs" class="st0">
		<path class="st5" d="M1267.66,943.33c29.55,25.47,55.42,54.72,84.7,80.64c44.13,39.06,84.96,81.82,127.64,122.54
			c78.5,74.88,157.24,149.5,236.03,224.08c43.73,41.39,88.64,81.57,131.44,123.9c102.44,101.32,95.26,273.3-14.52,367.11
			c-99.93,85.39-267.48,75.23-354.1-30.25c-48.3-58.82-105.63-110.18-158.37-165.41c-75.66-79.24-151.21-158.59-225.99-238.65
			c-21.06-22.55-39.32-47.72-66.02-64.39c0.13-7.49-5.6-11.38-9.75-16.42c-24.33-29.51-51.77-56.06-78.67-83.12
			c-9.45-10.09-18.79-20.28-28.36-30.26c-35.74-37.27-71.97-74.1-107.25-111.8c-46.05-49.22-90.06-100.37-139.88-145.98
			c-26.02-36.12-57.46-67.09-91.12-95.96c-1.53-10.35-10.83-14.65-16.97-21.25c-22.03-23.68-44.52-46.93-66.1-69.58
			c-123.73,25.17-235.81,2.75-335.67-73.15C75.38,655.06,27.39,573.89,6.97,477.5c-9.39-44.32-8.62-90.32-1.55-135.68
			c6-38.47,56.66-61.6,94.57-39.68c59.78,34.55,119.71,68.83,179.62,103.15c15.06,8.63,30.3,16.95,45.89,25.66
			c22.99-39.67,44.82-77.34,66.98-115.57c-72.92-42.04-145.5-83.95-218.15-125.76c-47.23-27.18-49.55-86.2-5.48-117.44
			C253.22,12.38,348.27-9.11,448.66,2.89c112.43,13.44,204.51,67.08,272.32,160.04c45.83,62.83,70.3,132.03,76.45,209.83
			c3.17,40.07-3.98,77.85-8.19,119.19C851.38,550,915.2,609.59,979.01,669.18c28.93,33.66,61.76,63.22,96.12,91.16
			c29.52,34.28,65.6,61.64,98.11,92.77C1204.71,883.18,1236.19,913.25,1267.66,943.33z M348.53,136.42
			c38.95,22.62,73.32,43.13,108.21,62.7c61.55,34.52,86.11,110.97,53.94,173.91c-18.66,36.51-39.04,72.18-59.79,107.56
			c-14.2,24.21-29.16,48.01-54.68,63.02c-55.64,32.73-108.16,22.94-159.74-9.62c-14.83-9.36-30.47-17.41-45.63-26.26
			c-14.56-8.5-28.98-17.24-46.36-27.61c17.74,53.18,45.56,95.58,86.18,126.57c74.66,56.97,157.73,76.8,249.84,46.49
			c33-10.86,62.05-4.66,86.9,23.3c41.37,46.55,84.41,91.66,127.9,136.24c48.62,49.85,96.09,100.75,143.68,151.56
			c65.31,69.72,133.52,136.76,197.83,207.37c28.87,31.7,58.68,62.67,88.21,93.57c62.28,65.17,122.19,132.53,184.95,197.23
			c92.92,95.8,186.39,191.08,276.51,289.56c30.1,32.89,69.21,41.1,109.83,32.73c46.41-9.57,78.22-40.98,88.16-87.36
			c8.87-41.37,0.24-80.72-32.92-111.7c-68.76-64.25-137.17-128.88-205.59-193.5c-74.25-70.12-148.36-140.37-222.5-210.6
			c-77.51-73.43-154.94-146.93-232.46-220.34C1017.35,891.49,943.45,822,869.99,752.05C803.21,688.46,737,624.27,670.26,560.64
			c-20.68-19.71-26.42-42.53-18.46-69.62c15.09-51.33,21.42-103.46,7.64-155.93C623.41,197.84,495.07,114.25,348.53,136.42z"/>
		<path class="st6" d="M1267.66,943.33c-31.48-30.07-62.95-60.14-94.41-90.22c29.79-36.54,58.75-73.95,89.69-109.24
			c42.43-48.38,90.28-92.06,136.46-137.09c12.25-11.94,26.93-19,45.85-18.5c47.82,1.27,95.7,0.42,143.15,0.42
			c61.62-110.95,122.82-221.14,181.28-326.4c-38.88-38.97-74.79-74.98-111.56-111.85C1550.86,210,1441.23,270.87,1331.31,331.9
			c0,27.51,0.42,54.77-0.08,82.01c-1.87,101.55,15.23,73.07-62.23,151.23c-64.56,65.13-129.24,130.14-193.87,195.2
			c-34.36-27.94-67.18-57.5-96.12-91.16c64.08-64.63,128.13-129.3,192.27-193.88c9.34-9.41,19.11-18.4,28.29-27.2
			c0-43.09,1.54-85.04-0.41-126.83c-2.15-45.89,13.52-77.22,55.97-99.88c129.68-69.2,257.6-141.67,386.48-212.39
			c28.03-15.38,59.5-10.4,81.69,11.65c58.48,58.11,116.34,116.85,175.08,174.7c21.82,21.49,26.47,59.18,12.07,85.02
			c-59.71,107.1-119.17,214.33-178.74,321.51c-13.55,24.39-29.07,47.89-40.32,73.3c-15.73,35.51-44.83,44.54-78.97,45.06
			c-45.86,0.7-91.74,0.17-138.49,0.17C1400.53,790.02,1331.16,863.95,1267.66,943.33z"/>
		<path class="st6" d="M573.45,879.33c33.65,28.87,65.1,59.84,91.12,95.96c-41.27,33.11-79.44,69.71-118.78,105.01
			c-68.35,61.34-137.52,121.76-206.16,182.77c-40.49,35.98-79.47,73.75-121.18,108.24c-59.57,49.27-87.98,113.05-88.01,188.25
			c-0.02,51.6,19.7,98.32,50.87,140.5c48.84,66.08,153.59,102.96,232.94,84.33c67.69-15.89,115.29-57.73,158.84-107.9
			c67.54-77.8,135.8-155,204.21-232.04c53.89-60.69,108.47-120.77,162.75-181.12c26.9,27.06,54.34,53.61,78.67,83.12
			c4.15,5.04,9.88,8.93,9.75,16.42c-49.78,55.68-99.75,111.19-149.28,167.09c-58.57,66.09-115.85,133.35-175.4,198.53
			c-48.19,52.76-91.46,111.07-156.85,145.74c-46.73,24.78-95.63,39.21-148.59,44.52c-90.66,9.09-172.41-13.75-245.12-65.69
			C64,1789.34,13.05,1701.8,1.59,1591.51c-10-96.23,15.24-181.46,71.53-259.5c23.6-32.73,54.32-57.37,83.13-84.27
			c28.44-26.56,58.71-51.17,87.87-76.97c71.19-62.99,142.51-125.85,213.19-189.41C495.63,946.89,532.85,911.2,573.45,879.33z"/>
		<path class="st6" d="M321.94,1662.54c-30.77,2.14-49.95-11.79-61.26-38.06c-9.75-22.64-3.79-55.04,14.04-72.97
			c42.21-42.47,84.5-84.87,127.04-127.01c25.32-25.08,69.56-24.98,94.17-0.36c24.54,24.56,24.58,68.92-0.4,94.1
			c-42.17,42.51-84.71,84.66-126.93,127.11C355.19,1658.83,339.45,1664.94,321.94,1662.54z"/>
	</g>
	<g id="Experience" class="st0">
		<path class="st6" d="M960.24,362.4c-249.61,0-499.22,0.53-748.82-0.42c-54.21-0.21-91.81,43.52-91.58,91.58
			c1.49,314.46,1.3,628.93,0.21,943.39c-0.17,48.86,36.16,89.65,90.97,89.65c244.25,0,488.51,0,732.76,0
			c54.2,0,108.41-0.06,162.61,0.02c37.02,0.05,58.45,22.69,58.29,61.35c-0.14,34.25-22.12,55.06-58.18,55.06
			c-307.16,0-614.32,0.01-921.47,0c-83.45,0-172.47-82.78-181.51-165.52c-3.28-29.97-3.18-59.67-3.21-89.48
			c-0.26-301.75-0.54-603.51,0.05-905.26c0.2-102.4,82.45-191.66,186.19-197.68c42.69-2.48,85.22-2.69,127.79-2.73
			c461.74-0.36,923.48-0.33,1385.22-0.1c58.81,0.03,113.68,14.1,157.29,56.12c38.86,37.44,61.55,84.39,62.24,138.3
			c1.63,125.77,0.58,251.57,0.48,377.35c-0.03,36.72-24.39,62.06-59.37,62.29c-36.11,0.24-61.02-25.27-61.03-62.83
			c-0.06-121.77-0.01-243.54-0.03-365.32c-0.01-49.08-36.6-85.72-86.07-85.73C1462.13,362.36,1211.18,362.4,960.24,362.4z"/>
		<path class="st5" d="M1321.29,1484.61c-178.51-147.29-156.64-380.13-27.77-502.24c127.53-120.84,326.19-119.5,452.56-4.85
			c135.35,122.79,155.12,364.52-23.22,507.18c0,62.78-0.71,126.29,0.19,189.79c0.95,66.75-42.39,107.01-106.66,108.76
			c-62.86,1.71-125.83,1.66-188.69,0.02c-65.97-1.72-106.67-44.39-106.45-109.22C1321.45,1611.15,1321.29,1548.27,1321.29,1484.61z
			 M1731.16,1221.74c6.24-111.99-99.07-209.96-208.42-210.64c-109.91-0.68-211.35,101.19-210.86,210.28
			c0.49,108.11,97.09,215.76,222.12,210.12C1632.33,1427.07,1737.64,1331.87,1731.16,1221.74z M1601.69,1541.53
			c-53.65,13.54-105.9,11.82-158.93-0.03c0,41.82,0,80.93,0,120.59c53.42,0,105.83,0,158.93,0
			C1601.69,1622.34,1601.69,1583.75,1601.69,1541.53z"/>
		<path class="st6" d="M811.49,551.11c133.11,0,266.22,0,399.33,0c33.74,0,59.52,18.72,62.25,45.18
			c4.34,41.97-13.42,67.46-51.39,71.98c-11.13,1.32-22.18,2.99-33.37,2.99c-253.51,0.06-507.03,0.15-760.54-0.14
			c-22.36-0.02-44.44-1.44-61.59-20.55c-18.06-20.12-21.86-42.15-11.26-65.58c9.9-21.89,27.8-34.03,53.22-33.99
			C542.59,551.23,677.04,551.11,811.49,551.11z"/>
		<path class="st6" d="M612.97,864.28c66.89,0,133.78-0.06,200.67,0.02c34.98,0.04,61.48,25.01,61.91,58.01
			c0.43,33.25-26.41,62.1-60.32,62.22c-135.79,0.46-271.58,0.55-407.36-0.07c-34-0.15-58.83-27.85-58.36-61.45
			c0.47-34.39,25.34-58.62,60.79-58.7C477.85,864.18,545.41,864.28,612.97,864.28z"/>
	</g>
</g>
</svg>
